<svg width="20" height="20" viewBox="0 0 20 20" fill="none" xmlns="http://www.w3.org/2000/svg">
<path d="M1.99999 8.79999C1.33725 8.79999 0.799988 9.33727 0.799988 9.99999C0.799988 10.6627 1.33725 11.2 1.99999 11.2V8.79999ZM9.99999 11.2C10.6627 11.2 11.2 10.6627 11.2 9.99999C11.2 9.33727 10.6627 8.79999 9.99999 8.79999V11.2ZM9.99999 8.79999C9.33727 8.79999 8.79999 9.33727 8.79999 9.99999C8.79999 10.6627 9.33727 11.2 9.99999 11.2V8.79999ZM18 11.2C18.6627 11.2 19.2 10.6627 19.2 9.99999C19.2 9.33727 18.6627 8.79999 18 8.79999V11.2ZM11.2 9.99999C11.2 9.33727 10.6627 8.79999 9.99999 8.79999C9.33727 8.79999 8.79999 9.33727 8.79999 9.99999H11.2ZM8.79999 18C8.79999 18.6627 9.33727 19.2 9.99999 19.2C10.6627 19.2 11.2 18.6627 11.2 18H8.79999ZM8.79999 9.99999C8.79999 10.6627 9.33727 11.2 9.99999 11.2C10.6627 11.2 11.2 10.6627 11.2 9.99999H8.79999ZM11.2 1.99999C11.2 1.33725 10.6627 0.799988 9.99999 0.799988C9.33727 0.799988 8.79999 1.33725 8.79999 1.99999H11.2ZM1.99999 11.2H9.99999V8.79999H1.99999V11.2ZM9.99999 11.2H18V8.79999H9.99999V11.2ZM9.99999 9.99999H8.79999V10.0016C8.79999 10.0017 8.79999 10.0035 8.79999 10.0035C8.79999 10.0033 8.79999 10.0037 8.79999 10.0035C8.79999 10.0035 8.79999 10.0053 8.79999 10.0054C8.79999 10.0053 8.79999 10.0056 8.79999 10.0054C8.79999 10.0056 8.79999 10.0069 8.79999 10.007C8.79999 10.0072 8.79999 10.0086 8.79999 10.0088C8.79999 10.0089 8.79999 10.0102 8.79999 10.0104C8.79999 10.0105 8.79999 10.012 8.79999 10.0123C8.79999 10.0125 8.79999 10.0139 8.79999 10.0142C8.79999 10.0144 8.79999 10.0161 8.79999 10.0163C8.79999 10.016 8.79999 10.0166 8.79999 10.0163C8.79999 10.0166 8.79999 10.0176 8.79999 10.0179C8.79999 10.0176 8.79999 10.0182 8.79999 10.0179C8.79999 10.0182 8.79999 10.0193 8.79999 10.0195C8.79999 10.0192 8.79999 10.0198 8.79999 10.0195C8.79999 10.0198 8.79999 10.0209 8.79999 10.0213C8.79999 10.0209 8.79999 10.0216 8.79999 10.0213C8.79999 10.0216 8.79999 10.0229 8.79999 10.0232C8.79999 10.0229 8.79999 10.0235 8.79999 10.0232C8.79999 10.0235 8.79999 10.0248 8.79999 10.0251C8.79999 10.0246 8.79999 10.0254 8.79999 10.0251C8.79999 10.0254 8.79999 10.0269 8.79999 10.0272C8.79999 10.0269 8.79999 10.0275 8.79999 10.0272C8.79999 10.0275 8.79999 10.0289 8.79999 10.0294C8.79999 10.0289 8.79999 10.0297 8.79999 10.0294C8.79999 10.0297 8.79999 10.0313 8.79999 10.0317C8.79999 10.0313 8.79999 10.032 8.79999 10.0317C8.79999 10.0321 8.79999 10.0336 8.79999 10.0341C8.79999 10.0336 8.79999 10.0345 8.79999 10.0341C8.79999 10.0344 8.79999 10.0361 8.79999 10.0366C8.79999 10.0361 8.79999 10.0369 8.79999 10.0366C8.79999 10.0371 8.79999 10.0387 8.79999 10.0392C8.79999 10.0387 8.79999 10.0397 8.79999 10.0392C8.79999 10.0397 8.79999 10.0416 8.79999 10.0421C8.79999 10.0416 8.79999 10.0425 8.79999 10.0421C8.79999 10.0425 8.79999 10.0445 8.79999 10.0449C8.79999 10.0445 8.79999 10.0454 8.79999 10.0449C8.79999 10.0454 8.79999 10.0473 8.79999 10.048C8.79999 10.0475 8.79999 10.0485 8.79999 10.048C8.79999 10.0486 8.79999 10.0505 8.79999 10.051C8.79999 10.0517 8.79999 10.0521 8.79999 10.0528C8.79999 10.0533 8.79999 10.0537 8.79999 10.0544C8.79999 10.055 8.79999 10.0555 8.79999 10.0561C8.79999 10.0566 8.79999 10.0573 8.79999 10.0577C8.79999 10.0584 8.79999 10.059 8.79999 10.0597C8.79999 10.0601 8.79999 10.0608 8.79999 10.0614C8.79999 10.0621 8.79999 10.0625 8.79999 10.0632C8.79999 10.0638 8.79999 10.0645 8.79999 10.0651C8.79999 10.0657 8.79999 10.0664 8.79999 10.067C8.79999 10.0677 8.79999 10.0683 8.79999 10.0689C8.79999 10.0696 8.79999 10.0704 8.79999 10.071C8.79999 10.0717 8.79999 10.0723 8.79999 10.0729C8.79999 10.0737 8.79999 10.0744 8.79999 10.075C8.79999 10.0758 8.79999 10.0765 8.79999 10.0771C8.79999 10.0779 8.79999 10.0785 8.79999 10.0793C8.79999 10.08 8.79999 10.0808 8.79999 10.0814C8.79999 10.0822 8.79999 10.083 8.79999 10.0837C8.79999 10.0845 8.79999 10.0853 8.79999 10.0861C8.79999 10.0867 8.79999 10.0875 8.79999 10.0883C8.79999 10.0891 8.79999 10.0899 8.79999 10.0907C8.79999 10.0913 8.79999 10.0921 8.79999 10.0929C8.79999 10.0937 8.79999 10.0947 8.79999 10.0955C8.79999 10.0963 8.79999 10.0971 8.79999 10.0979C8.79999 10.0987 8.79999 10.0995 8.79999 10.1005C8.79999 10.1013 8.79999 10.1021 8.79999 10.103C8.79999 10.1038 8.79999 10.1048 8.79999 10.1056C8.79999 10.1064 8.79999 10.1073 8.79999 10.1081C8.79999 10.1091 8.79999 10.1101 8.79999 10.1109C8.79999 10.1118 8.79999 10.1128 8.79999 10.1136C8.79999 10.1145 8.79999 10.1155 8.79999 10.1165C8.79999 10.1173 8.79999 10.1182 8.79999 10.1192C8.79999 10.1201 8.79999 10.1211 8.79999 10.1221C8.79999 10.123 8.79999 10.124 8.79999 10.1249C8.79999 10.1259 8.79999 10.127 8.79999 10.128C8.79999 10.1289 8.79999 10.1299 8.79999 10.1309C8.79999 10.132 8.79999 10.1329 8.79999 10.1339C8.79999 10.135 8.79999 10.136 8.79999 10.1371C8.79999 10.1381 8.79999 10.1392 8.79999 10.1401C8.79999 10.1413 8.79999 10.1424 8.79999 10.1433C8.79999 10.1445 8.79999 10.1456 8.79999 10.1467C8.79999 10.1477 8.79999 10.1488 8.79999 10.1499C8.79999 10.151 8.79999 10.1521 8.79999 10.1533C8.79999 10.1544 8.79999 10.1555 8.79999 10.1566C8.79999 10.1577 8.79999 10.1589 8.79999 10.16C8.79999 10.1613 8.79999 10.1624 8.79999 10.1635C8.79999 10.1648 8.79999 10.1659 8.79999 10.167C8.79999 10.1683 8.79999 10.1694 8.79999 10.1707C8.79999 10.1718 8.79999 10.1731 8.79999 10.1742C8.79999 10.1755 8.79999 10.1768 8.79999 10.1779C8.79999 10.1792 8.79999 10.1805 8.79999 10.1817C8.79999 10.183 8.79999 10.1841 8.79999 10.1854C8.79999 10.1867 8.79999 10.188 8.79999 10.1893C8.79999 10.1905 8.79999 10.192 8.79999 10.1933C8.79999 10.1945 8.79999 10.1958 8.79999 10.1971C8.79999 10.1985 8.79999 10.1998 8.79999 10.2011C8.79999 10.2025 8.79999 10.2038 8.79999 10.2053C8.79999 10.2065 8.79999 10.208 8.79999 10.2093C8.79999 10.2107 8.79999 10.2121 8.79999 10.2134C8.79999 10.2149 8.79999 10.2163 8.79999 10.2177C8.79999 10.219 8.79999 10.2205 8.79999 10.2219C8.79999 10.2233 8.79999 10.2248 8.79999 10.2262C8.79999 10.2277 8.79999 10.2291 8.79999 10.2307C8.79999 10.2321 8.79999 10.2336 8.79999 10.235C8.79999 10.2366 8.79999 10.2381 8.79999 10.2395C8.79999 10.2411 8.79999 10.2425 8.79999 10.2441C8.79999 10.2456 8.79999 10.2472 8.79999 10.2488C8.79999 10.2502 8.79999 10.2518 8.79999 10.2534C8.79999 10.255 8.79999 10.2565 8.79999 10.2581C8.79999 10.2597 8.79999 10.2613 8.79999 10.2629C8.79999 10.2645 8.79999 10.2661 8.79999 10.2677C8.79999 10.2694 8.79999 10.271 8.79999 10.2726C8.79999 10.2742 8.79999 10.276 8.79999 10.2776C8.79999 10.2792 8.79999 10.2809 8.79999 10.2825C8.79999 10.2843 8.79999 10.2859 8.79999 10.2877C8.79999 10.2894 8.79999 10.291 8.79999 10.2928C8.79999 10.2945 8.79999 10.2963 8.79999 10.2981C8.79999 10.2998 8.79999 10.3016 8.79999 10.3033C8.79999 10.3051 8.79999 10.3069 8.79999 10.3086C8.79999 10.3104 8.79999 10.3121 8.79999 10.3139C8.79999 10.3158 8.79999 10.3176 8.79999 10.3195C8.79999 10.3213 8.79999 10.323 8.79999 10.3249C8.79999 10.3267 8.79999 10.3286 8.79999 10.3305C8.79999 10.3323 8.79999 10.3342 8.79999 10.3361C8.79999 10.3381 8.79999 10.34 8.79999 10.3419C8.79999 10.3438 8.79999 10.3457 8.79999 10.3477C8.79999 10.3496 8.79999 10.3515 8.79999 10.3534C8.79999 10.3553 8.79999 10.3573 8.79999 10.3593C8.79999 10.3613 8.79999 10.3633 8.79999 10.3653C8.79999 10.3673 8.79999 10.3693 8.79999 10.3713C8.79999 10.3733 8.79999 10.3753 8.79999 10.3774C8.79999 10.3793 8.79999 10.3814 8.79999 10.3835C8.79999 10.3856 8.79999 10.3877 8.79999 10.3897C8.79999 10.3918 8.79999 10.3939 8.79999 10.396C8.79999 10.3981 8.79999 10.4003 8.79999 10.4024C8.79999 10.4045 8.79999 10.4067 8.79999 10.4088C8.79999 10.411 8.79999 10.4131 8.79999 10.4153C8.79999 10.4174 8.79999 10.4197 8.79999 10.4219C8.79999 10.424 8.79999 10.4262 8.79999 10.4285C8.79999 10.4307 8.79999 10.4329 8.79999 10.4352C8.79999 10.4374 8.79999 10.4397 8.79999 10.4419C8.79999 10.4441 8.79999 10.4465 8.79999 10.4488C8.79999 10.451 8.79999 10.4534 8.79999 10.4557C8.79999 10.4581 8.79999 10.4603 8.79999 10.4627C8.79999 10.4649 8.79999 10.4673 8.79999 10.4697C8.79999 10.4721 8.79999 10.4744 8.79999 10.4768C8.79999 10.4792 8.79999 10.4816 8.79999 10.484C8.79999 10.4864 8.79999 10.4888 8.79999 10.4913C8.79999 10.4937 8.79999 10.4961 8.79999 10.4985C8.79999 10.5011 8.79999 10.5035 8.79999 10.5061C8.79999 10.5085 8.79999 10.511 8.79999 10.5134C8.79999 10.516 8.79999 10.5185 8.79999 10.5211C8.79999 10.5235 8.79999 10.5261 8.79999 10.5286C8.79999 10.5312 8.79999 10.5337 8.79999 10.5363C8.79999 10.5389 8.79999 10.5416 8.79999 10.5441C8.79999 10.5467 8.79999 10.5494 8.79999 10.552C8.79999 10.5545 8.79999 10.5573 8.79999 10.56C8.79999 10.5625 8.79999 10.5653 8.79999 10.568C8.79999 10.5705 8.79999 10.5733 8.79999 10.576C8.79999 10.5787 8.79999 10.5814 8.79999 10.5841C8.79999 10.5869 8.79999 10.5896 8.79999 10.5923C8.79999 10.5952 8.79999 10.5979 8.79999 10.6006C8.79999 10.6035 8.79999 10.6062 8.79999 10.6091C8.79999 10.6118 8.79999 10.6147 8.79999 10.6174C8.79999 10.6203 8.79999 10.6232 8.79999 10.6261C8.79999 10.6289 8.79999 10.6318 8.79999 10.6347C8.79999 10.6376 8.79999 10.6405 8.79999 10.6433C8.79999 10.6462 8.79999 10.6491 8.79999 10.6521C8.79999 10.655 8.79999 10.6581 8.79999 10.6609C8.79999 10.664 8.79999 10.6669 8.79999 10.6699C8.79999 10.6729 8.79999 10.6758 8.79999 10.6789C8.79999 10.6819 8.79999 10.6849 8.79999 10.688C8.79999 10.691 8.79999 10.6941 8.79999 10.6973C8.79999 10.7003 8.79999 10.7033 8.79999 10.7064C8.79999 10.7096 8.79999 10.7126 8.79999 10.7158C8.79999 10.7189 8.79999 10.7221 8.79999 10.7253C8.79999 10.7283 8.79999 10.7315 8.79999 10.7347C8.79999 10.7379 8.79999 10.7411 8.79999 10.7443C8.79999 10.7475 8.79999 10.7507 8.79999 10.7539C8.79999 10.7571 8.79999 10.7605 8.79999 10.7637C8.79999 10.767 8.79999 10.7702 8.79999 10.7736C8.79999 10.7768 8.79999 10.7801 8.79999 10.7835C8.79999 10.7867 8.79999 10.7901 8.79999 10.7934C8.79999 10.7968 8.79999 10.8001 8.79999 10.8035C8.79999 10.8069 8.79999 10.8102 8.79999 10.8137C8.79999 10.8171 8.79999 10.8205 8.79999 10.824C8.79999 10.8273 8.79999 10.8309 8.79999 10.8342C8.79999 10.8377 8.79999 10.8413 8.79999 10.8448C8.79999 10.8481 8.79999 10.8517 8.79999 10.8552C8.79999 10.8587 8.79999 10.8622 8.79999 10.8659C8.79999 10.8694 8.79999 10.8729 8.79999 10.8765C8.79999 10.8801 8.79999 10.8837 8.79999 10.8873C8.79999 10.8909 8.79999 10.8945 8.79999 10.8982C8.79999 10.9017 8.79999 10.9054 8.79999 10.9091C8.79999 10.9128 8.79999 10.9165 8.79999 10.9201C8.79999 10.9238 8.79999 10.9275 8.79999 10.9313C8.79999 10.935 8.79999 10.9387 8.79999 10.9425C8.79999 10.9462 8.79999 10.9501 8.79999 10.9539C8.79999 10.9576 8.79999 10.9614 8.79999 10.9653C8.79999 10.9691 8.79999 10.9729 8.79999 10.9768C8.79999 10.9806 8.79999 10.9845 8.79999 10.9883C8.79999 10.9921 8.79999 10.9961 8.79999 11C8.79999 11.0038 8.79999 11.0078 8.79999 11.0118C8.79999 11.0157 8.79999 11.0197 8.79999 11.0237C8.79999 11.0275 8.79999 11.0315 8.79999 11.0355C8.79999 11.0395 8.79999 11.0435 8.79999 11.0477C8.79999 11.0517 8.79999 11.0557 8.79999 11.0597C8.79999 11.0638 8.79999 11.0678 8.79999 11.072C8.79999 11.076 8.79999 11.0801 8.79999 11.0843C8.79999 11.0885 8.79999 11.0925 8.79999 11.0966C8.79999 11.1008 8.79999 11.1049 8.79999 11.1093C8.79999 11.1134 8.79999 11.1176 8.79999 11.1217C8.79999 11.1261 8.79999 11.1302 8.79999 11.1345C8.79999 11.1387 8.79999 11.143 8.79999 11.1473C8.79999 11.1517 8.79999 11.1558 8.79999 11.1601C8.79999 11.1645 8.79999 11.1688 8.79999 11.1731C8.79999 11.1776 8.79999 11.1819 8.79999 11.1862C8.79999 11.1907 8.79999 11.195 8.79999 11.1995C8.79999 11.2038 8.79999 11.2083 8.79999 11.2128C8.79999 11.2171 8.79999 11.2216 8.79999 11.2261C8.79999 11.2305 8.79999 11.235 8.79999 11.2395C8.79999 11.2441 8.79999 11.2486 8.79999 11.2531C8.79999 11.2577 8.79999 11.2622 8.79999 11.2669C8.79999 11.2713 8.79999 11.276 8.79999 11.2806C8.79999 11.2853 8.79999 11.2897 8.79999 11.2944C8.79999 11.299 8.79999 11.3038 8.79999 11.3085C8.79999 11.3131 8.79999 11.3177 8.79999 11.3225C8.79999 11.3272 8.79999 11.332 8.79999 11.3366C8.79999 11.3414 8.79999 11.3462 8.79999 11.3509C8.79999 11.3557 8.79999 11.3605 8.79999 11.3653C8.79999 11.3701 8.79999 11.3749 8.79999 11.3798C8.79999 11.3846 8.79999 11.3894 8.79999 11.3944C8.79999 11.3992 8.79999 11.4041 8.79999 11.4091C8.79999 11.4139 8.79999 11.4189 8.79999 11.4238C8.79999 11.4288 8.79999 11.4337 8.79999 11.4387C8.79999 11.4437 8.79999 11.4486 8.79999 11.4537C8.79999 11.4587 8.79999 11.4637 8.79999 11.4688C8.79999 11.4737 8.79999 11.4789 8.79999 11.484C8.79999 11.4891 8.79999 11.4942 8.79999 11.4993C8.79999 11.5043 8.79999 11.5096 8.79999 11.5147C8.79999 11.5198 8.79999 11.5249 8.79999 11.5302C8.79999 11.5353 8.79999 11.5406 8.79999 11.5457C8.79999 11.551 8.79999 11.5563 8.79999 11.5616C8.79999 11.5667 8.79999 11.572 8.79999 11.5773C8.79999 11.5827 8.79999 11.588 8.79999 11.5933C8.79999 11.5985 8.79999 11.604 8.79999 11.6093C8.79999 11.6147 8.79999 11.62 8.79999 11.6254C8.79999 11.6309 8.79999 11.6363 8.79999 11.6417C8.79999 11.6472 8.79999 11.6526 8.79999 11.6581C8.79999 11.6635 8.79999 11.6691 8.79999 11.6745C8.79999 11.68 8.79999 11.6856 8.79999 11.6912C8.79999 11.6966 8.79999 11.7022 8.79999 11.7078C8.79999 11.7134 8.79999 11.719 8.79999 11.7246C8.79999 11.7302 8.79999 11.7358 8.79999 11.7416C8.79999 11.7472 8.79999 11.7528 8.79999 11.7585C8.79999 11.7643 8.79999 11.7699 8.79999 11.7757C8.79999 11.7814 8.79999 11.7872 8.79999 11.7929C8.79999 11.7987 8.79999 11.8045 8.79999 11.8102C8.79999 11.816 8.79999 11.8219 8.79999 11.8277C8.79999 11.8336 8.79999 11.8393 8.79999 11.8453C8.79999 11.8512 8.79999 11.8571 8.79999 11.863C8.79999 11.8689 8.79999 11.8749 8.79999 11.8808C8.79999 11.8867 8.79999 11.8926 8.79999 11.8987C8.79999 11.9046 8.79999 11.9107 8.79999 11.9168C8.79999 11.9227 8.79999 11.9288 8.79999 11.9349C8.79999 11.9409 8.79999 11.947 8.79999 11.9531C8.79999 11.9592 8.79999 11.9653 8.79999 11.9715C8.79999 11.9776 8.79999 11.9838 8.79999 11.9899C8.79999 11.9961 8.79999 12.0024 8.79999 12.0086C8.79999 12.0147 8.79999 12.0209 8.79999 12.0273C8.79999 12.0336 8.79999 12.0398 8.79999 12.0461C8.79999 12.0525 8.79999 12.0587 8.79999 12.0651C8.79999 12.0713 8.79999 12.0777 8.79999 12.0841C8.79999 12.0905 8.79999 12.0969 8.79999 12.1033C8.79999 12.1097 8.79999 12.1161 8.79999 12.1225C8.79999 12.1291 8.79999 12.1355 8.79999 12.1421C8.79999 12.1485 8.79999 12.155 8.79999 12.1616C8.79999 12.168 8.79999 12.1745 8.79999 12.1811C8.79999 12.1878 8.79999 12.1944 8.79999 12.2009C8.79999 12.2075 8.79999 12.2142 8.79999 12.2208C8.79999 12.2275 8.79999 12.2342 8.79999 12.2408C8.79999 12.2475 8.79999 12.2542 8.79999 12.2609C8.79999 12.2677 8.79999 12.2744 8.79999 12.2813C8.79999 12.288 8.79999 12.2947 8.79999 12.3016C8.79999 12.3085 8.79999 12.3152 8.79999 12.3221C8.79999 12.3289 8.79999 12.3358 8.79999 12.3427C8.79999 12.3496 8.79999 12.3565 8.79999 12.3633C8.79999 12.3704 8.79999 12.3773 8.79999 12.3843C8.79999 12.3912 8.79999 12.3982 8.79999 12.4053C8.79999 12.4123 8.79999 12.4193 8.79999 12.4264C8.79999 12.4334 8.79999 12.4405 8.79999 12.4475C8.79999 12.4547 8.79999 12.4617 8.79999 12.4689C8.79999 12.476 8.79999 12.4832 8.79999 12.4904C8.79999 12.4976 8.79999 12.5048 8.79999 12.512C8.79999 12.5192 8.79999 12.5264 8.79999 12.5337C8.79999 12.5409 8.79999 12.5483 8.79999 12.5555C8.79999 12.5629 8.79999 12.5702 8.79999 12.5774C8.79999 12.5848 8.79999 12.5921 8.79999 12.5997C8.79999 12.607 8.79999 12.6144 8.79999 12.6217C8.79999 12.6293 8.79999 12.6366 8.79999 12.6441C8.79999 12.6517 8.79999 12.6592 8.79999 12.6667C8.79999 12.6741 8.79999 12.6817 8.79999 12.6893C8.79999 12.6968 8.79999 12.7043 8.79999 12.712C8.79999 12.7195 8.79999 12.7272 8.79999 12.7349C8.79999 12.7424 8.79999 12.7501 8.79999 12.7577C8.79999 12.7654 8.79999 12.7731 8.79999 12.7809C8.79999 12.7886 8.79999 12.7963 8.79999 12.8041C8.79999 12.812 8.79999 12.8197 8.79999 12.8275C8.79999 12.8353 8.79999 12.8432 8.79999 12.851C8.79999 12.8589 8.79999 12.8667 8.79999 12.8747C8.79999 12.8825 8.79999 12.8904 8.79999 12.8984C8.79999 12.9064 8.79999 12.9142 8.79999 12.9222C8.79999 12.9302 8.79999 12.9382 8.79999 12.9462C8.79999 12.9544 8.79999 12.9624 8.79999 12.9704C8.79999 12.9785 8.79999 12.9865 8.79999 12.9947C8.79999 13.0029 8.79999 13.011 8.79999 13.0192C8.79999 13.0273 8.79999 13.0355 8.79999 13.0437C8.79999 13.0518 8.79999 13.0601 8.79999 13.0683C8.79999 13.0766 8.79999 13.0849 8.79999 13.0931C8.79999 13.1014 8.79999 13.1097 8.79999 13.1181C8.79999 13.1264 8.79999 13.1349 8.79999 13.1432C8.79999 13.1515 8.79999 13.16 8.79999 13.1685C8.79999 13.1768 8.79999 13.1853 8.79999 13.1937C8.79999 13.2022 8.79999 13.2107 8.79999 13.2192C8.79999 13.2278 8.79999 13.2363 8.79999 13.2448C8.79999 13.2534 8.79999 13.2621 8.79999 13.2705C8.79999 13.2792 8.79999 13.2878 8.79999 13.2965C8.79999 13.3051 8.79999 13.3139 8.79999 13.3225C8.79999 13.3312 8.79999 13.34 8.79999 13.3486C8.79999 13.3574 8.79999 13.3662 8.79999 13.375C8.79999 13.3838 8.79999 13.3926 8.79999 13.4014C8.79999 13.4102 8.79999 13.4192 8.79999 13.428C8.79999 13.4369 8.79999 13.4457 8.79999 13.4547C8.79999 13.4637 8.79999 13.4726 8.79999 13.4816C8.79999 13.4905 8.79999 13.4995 8.79999 13.5086C8.79999 13.5176 8.79999 13.5265 8.79999 13.5357C8.79999 13.5448 8.79999 13.5539 8.79999 13.5629C8.79999 13.572 8.79999 13.5813 8.79999 13.5904C8.79999 13.5995 8.79999 13.6086 8.79999 13.6179C8.79999 13.627 8.79999 13.6363 8.79999 13.6456C8.79999 13.6549 8.79999 13.6641 8.79999 13.6734C8.79999 13.6827 8.79999 13.692 8.79999 13.7014C8.79999 13.7107 8.79999 13.7201 8.79999 13.7294C8.79999 13.7389 8.79999 13.7483 8.79999 13.7577C8.79999 13.7672 8.79999 13.7766 8.79999 13.7861C8.79999 13.7957 8.79999 13.8051 8.79999 13.8147C8.79999 13.8241 8.79999 13.8337 8.79999 13.8433C8.79999 13.8529 8.79999 13.8625 8.79999 13.8721C8.79999 13.8817 8.79999 13.8915 8.79999 13.9011C8.79999 13.9109 8.79999 13.9205 8.79999 13.9302C8.79999 13.94 8.79999 13.9497 8.79999 13.9595C8.79999 13.9693 8.79999 13.9792 8.79999 13.9889C8.79999 13.9987 8.79999 14.0086 8.79999 14.0185C8.79999 14.0283 8.79999 14.0382 8.79999 14.0481C8.79999 14.0581 8.79999 14.068 8.79999 14.0781C8.79999 14.088 8.79999 14.0979 8.79999 14.108C8.79999 14.1181 8.79999 14.128 8.79999 14.1381C8.79999 14.1481 8.79999 14.1582 8.79999 14.1685C8.79999 14.1785 8.79999 14.1886 8.79999 14.1989C8.79999 14.2089 8.79999 14.2192 8.79999 14.2294C8.79999 14.2397 8.79999 14.2499 8.79999 14.2601C8.79999 14.2704 8.79999 14.2806 8.79999 14.291C8.79999 14.3013 8.79999 14.3117 8.79999 14.3221C8.79999 14.3323 8.79999 14.3427 8.79999 14.3533C8.79999 14.3637 8.79999 14.3741 8.79999 14.3845C8.79999 14.395 8.79999 14.4054 8.79999 14.416C8.79999 14.4265 8.79999 14.4371 8.79999 14.4477C8.79999 14.4582 8.79999 14.4688 8.79999 14.4793C8.79999 14.4899 8.79999 14.5006 8.79999 14.5113C8.79999 14.5219 8.79999 14.5326 8.79999 14.5433C8.79999 14.5541 8.79999 14.5648 8.79999 14.5755C8.79999 14.5864 8.79999 14.5971 8.79999 14.608C8.79999 14.6187 8.79999 14.6296 8.79999 14.6405C8.79999 14.6513 8.79999 14.6622 8.79999 14.6731C8.79999 14.6841 8.79999 14.695 8.79999 14.7061C8.79999 14.7169 8.79999 14.728 8.79999 14.739C8.79999 14.7501 8.79999 14.7611 8.79999 14.7721C8.79999 14.7832 8.79999 14.7942 8.79999 14.8054C8.79999 14.8165 8.79999 14.8277 8.79999 14.8389C8.79999 14.8501 8.79999 14.8613 8.79999 14.8725C8.79999 14.8837 8.79999 14.8949 8.79999 14.9062C8.79999 14.9174 8.79999 14.9288 8.79999 14.9401C8.79999 14.9515 8.79999 14.9629 8.79999 14.9742C8.79999 14.9856 8.79999 14.9969 8.79999 15.0085C8.79999 15.0198 8.79999 15.0313 8.79999 15.0429C8.79999 15.0542 8.79999 15.0657 8.79999 15.0774C8.79999 15.0889 8.79999 15.1005 8.79999 15.112C8.79999 15.1237 8.79999 15.1352 8.79999 15.1469C8.79999 15.1585 8.79999 15.1702 8.79999 15.1819C8.79999 15.1936 8.79999 15.2053 8.79999 15.2171C8.79999 15.2288 8.79999 15.2406 8.79999 15.2525C8.79999 15.2641 8.79999 15.276 8.79999 15.2878C8.79999 15.2998 8.79999 15.3117 8.79999 15.3235C8.79999 15.3355 8.79999 15.3473 8.79999 15.3593C8.79999 15.3713 8.79999 15.3833 8.79999 15.3953C8.79999 15.4073 8.79999 15.4193 8.79999 15.4315C8.79999 15.4435 8.79999 15.4557 8.79999 15.4678C8.79999 15.4798 8.79999 15.492 8.79999 15.5041C8.79999 15.5163 8.79999 15.5286 8.79999 15.5408C8.79999 15.5531 8.79999 15.5653 8.79999 15.5776C8.79999 15.5899 8.79999 15.6022 8.79999 15.6145C8.79999 15.6269 8.79999 15.6392 8.79999 15.6517C8.79999 15.664 8.79999 15.6765 8.79999 15.6889C8.79999 15.7013 8.79999 15.7137 8.79999 15.7264C8.79999 15.7389 8.79999 15.7513 8.79999 15.764C8.79999 15.7765 8.79999 15.7891 8.79999 15.8016C8.79999 15.8142 8.79999 15.8269 8.79999 15.8395C8.79999 15.8523 8.79999 15.8649 8.79999 15.8777C8.79999 15.8904 8.79999 15.9032 8.79999 15.916C8.79999 15.9286 8.79999 15.9414 8.79999 15.9544C8.79999 15.9672 8.79999 15.98 8.79999 15.9929C8.79999 16.0057 8.79999 16.0187 8.79999 16.0317C8.79999 16.0446 8.79999 16.0576 8.79999 16.0705C8.79999 16.0835 8.79999 16.0966 8.79999 16.1096C8.79999 16.1227 8.79999 16.1358 8.79999 16.1489C8.79999 16.1621 8.79999 16.1752 8.79999 16.1883C8.79999 16.2014 8.79999 16.2147 8.79999 16.2278C8.79999 16.2411 8.79999 16.2544 8.79999 16.2677C8.79999 16.2809 8.79999 16.2942 8.79999 16.3075C8.79999 16.3209 8.79999 16.3342 8.79999 16.3477C8.79999 16.3611 8.79999 16.3745 8.79999 16.388C8.79999 16.4014 8.79999 16.4149 8.79999 16.4283C8.79999 16.4419 8.79999 16.4553 8.79999 16.4689C8.79999 16.4825 8.79999 16.4961 8.79999 16.5097C8.79999 16.5233 8.79999 16.5369 8.79999 16.5507C8.79999 16.5643 8.79999 16.5781 8.79999 16.5918C8.79999 16.6056 8.79999 16.6193 8.79999 16.6331C8.79999 16.6469 8.79999 16.6606 8.79999 16.6745C8.79999 16.6883 8.79999 16.7022 8.79999 16.7161C8.79999 16.7301 8.79999 16.744 8.79999 16.7579C8.79999 16.772 8.79999 16.7859 8.79999 16.8C8.79999 16.8139 8.79999 16.828 8.79999 16.8421C8.79999 16.8561 8.79999 16.8702 8.79999 16.8845C8.79999 16.8985 8.79999 16.9126 8.79999 16.9269C8.79999 16.9411 8.79999 16.9553 8.79999 16.9696C8.79999 16.9838 8.79999 16.9981 8.79999 17.0125C8.79999 17.0267 8.79999 17.0411 8.79999 17.0555C8.79999 17.0697 8.79999 17.0841 8.79999 17.0987C8.79999 17.1131 8.79999 17.1275 8.79999 17.1421C8.79999 17.1565 8.79999 17.171 8.79999 17.1856C8.79999 17.2001 8.79999 17.2147 8.79999 17.2293C8.79999 17.2438 8.79999 17.2585 8.79999 17.2731C8.79999 17.2878 8.79999 17.3025 8.79999 17.3173C8.79999 17.332 8.79999 17.3467 8.79999 17.3616C8.79999 17.3763 8.79999 17.3912 8.79999 17.4059C8.79999 17.4208 8.79999 17.4357 8.79999 17.4505C8.79999 17.4654 8.79999 17.4805 8.79999 17.4953C8.79999 17.5104 8.79999 17.5253 8.79999 17.5403C8.79999 17.5553 8.79999 17.5704 8.79999 17.5854C8.79999 17.6006 8.79999 17.6157 8.79999 17.6309C8.79999 17.6459 8.79999 17.6611 8.79999 17.6763C8.79999 17.6915 8.79999 17.7067 8.79999 17.7221C8.79999 17.7373 8.79999 17.7526 8.79999 17.7678C8.79999 17.7832 8.79999 17.7985 8.79999 17.8139C8.79999 17.8293 8.79999 17.8448 8.79999 17.8601C8.79999 17.8757 8.79999 17.891 8.79999 17.9065C8.79999 17.9221 8.79999 17.9376 8.79999 17.9533C8.79999 17.9688 8.79999 17.9843 8.79999 18H11.2C11.2 17.9843 11.2 17.9688 11.2 17.9533C11.2 17.9376 11.2 17.9221 11.2 17.9065C11.2 17.891 11.2 17.8757 11.2 17.8601C11.2 17.8448 11.2 17.8293 11.2 17.8139C11.2 17.7985 11.2 17.7832 11.2 17.7678C11.2 17.7526 11.2 17.7373 11.2 17.7221C11.2 17.7067 11.2 17.6915 11.2 17.6763C11.2 17.6611 11.2 17.6459 11.2 17.6309C11.2 17.6157 11.2 17.6006 11.2 17.5854C11.2 17.5704 11.2 17.5553 11.2 17.5403C11.2 17.5253 11.2 17.5104 11.2 17.4953C11.2 17.4805 11.2 17.4654 11.2 17.4505C11.2 17.4357 11.2 17.4208 11.2 17.4059C11.2 17.3912 11.2 17.3763 11.2 17.3616C11.2 17.3467 11.2 17.332 11.2 17.3173C11.2 17.3025 11.2 17.2878 11.2 17.2731C11.2 17.2585 11.2 17.2438 11.2 17.2293C11.2 17.2147 11.2 17.2001 11.2 17.1856C11.2 17.171 11.2 17.1565 11.2 17.1421C11.2 17.1275 11.2 17.1131 11.2 17.0987C11.2 17.0841 11.2 17.0697 11.2 17.0555C11.2 17.0411 11.2 17.0267 11.2 17.0125C11.2 16.9981 11.2 16.9838 11.2 16.9696C11.2 16.9553 11.2 16.9411 11.2 16.9269C11.2 16.9126 11.2 16.8985 11.2 16.8845C11.2 16.8702 11.2 16.8561 11.2 16.8421C11.2 16.828 11.2 16.8139 11.2 16.8C11.2 16.7859 11.2 16.772 11.2 16.7579C11.2 16.744 11.2 16.7301 11.2 16.7161C11.2 16.7022 11.2 16.6883 11.2 16.6745C11.2 16.6606 11.2 16.6469 11.2 16.6331C11.2 16.6193 11.2 16.6056 11.2 16.5918C11.2 16.5781 11.2 16.5643 11.2 16.5507C11.2 16.5369 11.2 16.5233 11.2 16.5097C11.2 16.4961 11.2 16.4825 11.2 16.4689C11.2 16.4553 11.2 16.4419 11.2 16.4283C11.2 16.4149 11.2 16.4014 11.2 16.388C11.2 16.3745 11.2 16.3611 11.2 16.3477C11.2 16.3342 11.2 16.3209 11.2 16.3075C11.2 16.2942 11.2 16.2809 11.2 16.2677C11.2 16.2544 11.2 16.2411 11.2 16.2278C11.2 16.2147 11.2 16.2014 11.2 16.1883C11.2 16.1752 11.2 16.1621 11.2 16.1489C11.2 16.1358 11.2 16.1227 11.2 16.1096C11.2 16.0966 11.2 16.0835 11.2 16.0705C11.2 16.0576 11.2 16.0446 11.2 16.0317C11.2 16.0187 11.2 16.0057 11.2 15.9929C11.2 15.98 11.2 15.9672 11.2 15.9544C11.2 15.9414 11.2 15.9286 11.2 15.916C11.2 15.9032 11.2 15.8904 11.2 15.8777C11.2 15.8649 11.2 15.8523 11.2 15.8395C11.2 15.8269 11.2 15.8142 11.2 15.8016C11.2 15.7891 11.2 15.7765 11.2 15.764C11.2 15.7513 11.2 15.7389 11.2 15.7264C11.2 15.7137 11.2 15.7013 11.2 15.6889C11.2 15.6765 11.2 15.664 11.2 15.6517C11.2 15.6392 11.2 15.6269 11.2 15.6145C11.2 15.6022 11.2 15.5899 11.2 15.5776C11.2 15.5653 11.2 15.5531 11.2 15.5408C11.2 15.5286 11.2 15.5163 11.2 15.5041C11.2 15.492 11.2 15.4798 11.2 15.4678C11.2 15.4557 11.2 15.4435 11.2 15.4315C11.2 15.4193 11.2 15.4073 11.2 15.3953C11.2 15.3833 11.2 15.3713 11.2 15.3593C11.2 15.3473 11.2 15.3355 11.2 15.3235C11.2 15.3117 11.2 15.2998 11.2 15.2878C11.2 15.276 11.2 15.2641 11.2 15.2525C11.2 15.2406 11.2 15.2288 11.2 15.2171C11.2 15.2053 11.2 15.1936 11.2 15.1819C11.2 15.1702 11.2 15.1585 11.2 15.1469C11.2 15.1352 11.2 15.1237 11.2 15.112C11.2 15.1005 11.2 15.0889 11.2 15.0774C11.2 15.0657 11.2 15.0542 11.2 15.0429C11.2 15.0313 11.2 15.0198 11.2 15.0085C11.2 14.9969 11.2 14.9856 11.2 14.9742C11.2 14.9629 11.2 14.9515 11.2 14.9401C11.2 14.9288 11.2 14.9174 11.2 14.9062C11.2 14.8949 11.2 14.8837 11.2 14.8725C11.2 14.8613 11.2 14.8501 11.2 14.8389C11.2 14.8277 11.2 14.8165 11.2 14.8054C11.2 14.7942 11.2 14.7832 11.2 14.7721C11.2 14.7611 11.2 14.7501 11.2 14.739C11.2 14.728 11.2 14.7169 11.2 14.7061C11.2 14.695 11.2 14.6841 11.2 14.6731C11.2 14.6622 11.2 14.6513 11.2 14.6405C11.2 14.6296 11.2 14.6187 11.2 14.608C11.2 14.5971 11.2 14.5864 11.2 14.5755C11.2 14.5648 11.2 14.5541 11.2 14.5433C11.2 14.5326 11.2 14.5219 11.2 14.5113C11.2 14.5006 11.2 14.4899 11.2 14.4793C11.2 14.4688 11.2 14.4582 11.2 14.4477C11.2 14.4371 11.2 14.4265 11.2 14.416C11.2 14.4054 11.2 14.395 11.2 14.3845C11.2 14.3741 11.2 14.3637 11.2 14.3533C11.2 14.3427 11.2 14.3323 11.2 14.3221C11.2 14.3117 11.2 14.3013 11.2 14.291C11.2 14.2806 11.2 14.2704 11.2 14.2601C11.2 14.2499 11.2 14.2397 11.2 14.2294C11.2 14.2192 11.2 14.2089 11.2 14.1989C11.2 14.1886 11.2 14.1785 11.2 14.1685C11.2 14.1582 11.2 14.1481 11.2 14.1381C11.2 14.128 11.2 14.1181 11.2 14.108C11.2 14.0979 11.2 14.088 11.2 14.0781C11.2 14.068 11.2 14.0581 11.2 14.0481C11.2 14.0382 11.2 14.0283 11.2 14.0185C11.2 14.0086 11.2 13.9987 11.2 13.9889C11.2 13.9792 11.2 13.9693 11.2 13.9595C11.2 13.9497 11.2 13.94 11.2 13.9302C11.2 13.9205 11.2 13.9109 11.2 13.9011C11.2 13.8915 11.2 13.8817 11.2 13.8721C11.2 13.8625 11.2 13.8529 11.2 13.8433C11.2 13.8337 11.2 13.8241 11.2 13.8147C11.2 13.8051 11.2 13.7957 11.2 13.7861C11.2 13.7766 11.2 13.7672 11.2 13.7577C11.2 13.7483 11.2 13.7389 11.2 13.7294C11.2 13.7201 11.2 13.7107 11.2 13.7014C11.2 13.692 11.2 13.6827 11.2 13.6734C11.2 13.6641 11.2 13.6549 11.2 13.6456C11.2 13.6363 11.2 13.627 11.2 13.6179C11.2 13.6086 11.2 13.5995 11.2 13.5904C11.2 13.5813 11.2 13.572 11.2 13.5629C11.2 13.5539 11.2 13.5448 11.2 13.5357C11.2 13.5265 11.2 13.5176 11.2 13.5086C11.2 13.4995 11.2 13.4905 11.2 13.4816C11.2 13.4726 11.2 13.4637 11.2 13.4547C11.2 13.4457 11.2 13.4369 11.2 13.428C11.2 13.4192 11.2 13.4102 11.2 13.4014C11.2 13.3926 11.2 13.3838 11.2 13.375C11.2 13.3662 11.2 13.3574 11.2 13.3486C11.2 13.34 11.2 13.3312 11.2 13.3225C11.2 13.3139 11.2 13.3051 11.2 13.2965C11.2 13.2878 11.2 13.2792 11.2 13.2705C11.2 13.2621 11.2 13.2534 11.2 13.2448C11.2 13.2363 11.2 13.2278 11.2 13.2192C11.2 13.2107 11.2 13.2022 11.2 13.1937C11.2 13.1853 11.2 13.1768 11.2 13.1685C11.2 13.16 11.2 13.1515 11.2 13.1432C11.2 13.1349 11.2 13.1264 11.2 13.1181C11.2 13.1097 11.2 13.1014 11.2 13.0931C11.2 13.0849 11.2 13.0766 11.2 13.0683C11.2 13.0601 11.2 13.0518 11.2 13.0437C11.2 13.0355 11.2 13.0273 11.2 13.0192C11.2 13.011 11.2 13.0029 11.2 12.9947C11.2 12.9865 11.2 12.9785 11.2 12.9704C11.2 12.9624 11.2 12.9544 11.2 12.9462C11.2 12.9382 11.2 12.9302 11.2 12.9222C11.2 12.9142 11.2 12.9064 11.2 12.8984C11.2 12.8904 11.2 12.8825 11.2 12.8747C11.2 12.8667 11.2 12.8589 11.2 12.851C11.2 12.8432 11.2 12.8353 11.2 12.8275C11.2 12.8197 11.2 12.812 11.2 12.8041C11.2 12.7963 11.2 12.7886 11.2 12.7809C11.2 12.7731 11.2 12.7654 11.2 12.7577C11.2 12.7501 11.2 12.7424 11.2 12.7349C11.2 12.7272 11.2 12.7195 11.2 12.712C11.2 12.7043 11.2 12.6968 11.2 12.6893C11.2 12.6817 11.2 12.6741 11.2 12.6667C11.2 12.6592 11.2 12.6517 11.2 12.6441C11.2 12.6366 11.2 12.6293 11.2 12.6217C11.2 12.6144 11.2 12.607 11.2 12.5997C11.2 12.5921 11.2 12.5848 11.2 12.5774C11.2 12.5702 11.2 12.5629 11.2 12.5555C11.2 12.5483 11.2 12.5409 11.2 12.5337C11.2 12.5264 11.2 12.5192 11.2 12.512C11.2 12.5048 11.2 12.4976 11.2 12.4904C11.2 12.4832 11.2 12.476 11.2 12.4689C11.2 12.4617 11.2 12.4547 11.2 12.4475C11.2 12.4405 11.2 12.4334 11.2 12.4264C11.2 12.4193 11.2 12.4123 11.2 12.4053C11.2 12.3982 11.2 12.3912 11.2 12.3843C11.2 12.3773 11.2 12.3704 11.2 12.3633C11.2 12.3565 11.2 12.3496 11.2 12.3427C11.2 12.3358 11.2 12.3289 11.2 12.3221C11.2 12.3152 11.2 12.3085 11.2 12.3016C11.2 12.2947 11.2 12.288 11.2 12.2813C11.2 12.2744 11.2 12.2677 11.2 12.2609C11.2 12.2542 11.2 12.2475 11.2 12.2408C11.2 12.2342 11.2 12.2275 11.2 12.2208C11.2 12.2142 11.2 12.2075 11.2 12.2009C11.2 12.1944 11.2 12.1878 11.2 12.1811C11.2 12.1745 11.2 12.168 11.2 12.1616C11.2 12.155 11.2 12.1485 11.2 12.1421C11.2 12.1355 11.2 12.1291 11.2 12.1225C11.2 12.1161 11.2 12.1097 11.2 12.1033C11.2 12.0969 11.2 12.0905 11.2 12.0841C11.2 12.0777 11.2 12.0713 11.2 12.0651C11.2 12.0587 11.2 12.0525 11.2 12.0461C11.2 12.0398 11.2 12.0336 11.2 12.0273C11.2 12.0209 11.2 12.0147 11.2 12.0086C11.2 12.0024 11.2 11.9961 11.2 11.9899C11.2 11.9838 11.2 11.9776 11.2 11.9715C11.2 11.9653 11.2 11.9592 11.2 11.9531C11.2 11.947 11.2 11.9409 11.2 11.9349C11.2 11.9288 11.2 11.9227 11.2 11.9168C11.2 11.9107 11.2 11.9046 11.2 11.8987C11.2 11.8926 11.2 11.8867 11.2 11.8808C11.2 11.8749 11.2 11.8689 11.2 11.863C11.2 11.8571 11.2 11.8512 11.2 11.8453C11.2 11.8393 11.2 11.8336 11.2 11.8277C11.2 11.8219 11.2 11.816 11.2 11.8102C11.2 11.8045 11.2 11.7987 11.2 11.7929C11.2 11.7872 11.2 11.7814 11.2 11.7757C11.2 11.7699 11.2 11.7643 11.2 11.7585C11.2 11.7528 11.2 11.7472 11.2 11.7416C11.2 11.7358 11.2 11.7302 11.2 11.7246C11.2 11.719 11.2 11.7134 11.2 11.7078C11.2 11.7022 11.2 11.6966 11.2 11.6912C11.2 11.6856 11.2 11.68 11.2 11.6745C11.2 11.6691 11.2 11.6635 11.2 11.6581C11.2 11.6526 11.2 11.6472 11.2 11.6417C11.2 11.6363 11.2 11.6309 11.2 11.6254C11.2 11.62 11.2 11.6147 11.2 11.6093C11.2 11.604 11.2 11.5985 11.2 11.5933C11.2 11.588 11.2 11.5827 11.2 11.5773C11.2 11.572 11.2 11.5667 11.2 11.5616C11.2 11.5563 11.2 11.551 11.2 11.5457C11.2 11.5406 11.2 11.5353 11.2 11.5302C11.2 11.5249 11.2 11.5198 11.2 11.5147C11.2 11.5096 11.2 11.5043 11.2 11.4993C11.2 11.4942 11.2 11.4891 11.2 11.484C11.2 11.4789 11.2 11.4737 11.2 11.4688C11.2 11.4637 11.2 11.4587 11.2 11.4537C11.2 11.4486 11.2 11.4437 11.2 11.4387C11.2 11.4337 11.2 11.4288 11.2 11.4238C11.2 11.4189 11.2 11.4139 11.2 11.4091C11.2 11.4041 11.2 11.3992 11.2 11.3944C11.2 11.3894 11.2 11.3846 11.2 11.3798C11.2 11.3749 11.2 11.3701 11.2 11.3653C11.2 11.3605 11.2 11.3557 11.2 11.3509C11.2 11.3462 11.2 11.3414 11.2 11.3366C11.2 11.332 11.2 11.3272 11.2 11.3225C11.2 11.3177 11.2 11.3131 11.2 11.3085C11.2 11.3038 11.2 11.299 11.2 11.2944C11.2 11.2897 11.2 11.2853 11.2 11.2806C11.2 11.276 11.2 11.2713 11.2 11.2669C11.2 11.2622 11.2 11.2577 11.2 11.2531C11.2 11.2486 11.2 11.2441 11.2 11.2395C11.2 11.235 11.2 11.2305 11.2 11.2261C11.2 11.2216 11.2 11.2171 11.2 11.2128C11.2 11.2083 11.2 11.2038 11.2 11.1995C11.2 11.195 11.2 11.1907 11.2 11.1862C11.2 11.1819 11.2 11.1776 11.2 11.1731C11.2 11.1688 11.2 11.1645 11.2 11.1601C11.2 11.1558 11.2 11.1517 11.2 11.1473C11.2 11.143 11.2 11.1387 11.2 11.1345C11.2 11.1302 11.2 11.1261 11.2 11.1217C11.2 11.1176 11.2 11.1134 11.2 11.1093C11.2 11.1049 11.2 11.1008 11.2 11.0966C11.2 11.0925 11.2 11.0885 11.2 11.0843C11.2 11.0801 11.2 11.076 11.2 11.072C11.2 11.0678 11.2 11.0638 11.2 11.0597C11.2 11.0557 11.2 11.0517 11.2 11.0477C11.2 11.0435 11.2 11.0395 11.2 11.0355C11.2 11.0315 11.2 11.0275 11.2 11.0237C11.2 11.0197 11.2 11.0157 11.2 11.0118C11.2 11.0078 11.2 11.0038 11.2 11C11.2 10.9961 11.2 10.9921 11.2 10.9883C11.2 10.9845 11.2 10.9806 11.2 10.9768C11.2 10.9729 11.2 10.9691 11.2 10.9653C11.2 10.9614 11.2 10.9576 11.2 10.9539C11.2 10.9501 11.2 10.9462 11.2 10.9425C11.2 10.9387 11.2 10.935 11.2 10.9313C11.2 10.9275 11.2 10.9238 11.2 10.9201C11.2 10.9165 11.2 10.9128 11.2 10.9091C11.2 10.9054 11.2 10.9017 11.2 10.8982C11.2 10.8945 11.2 10.8909 11.2 10.8873C11.2 10.8837 11.2 10.8801 11.2 10.8765C11.2 10.8729 11.2 10.8694 11.2 10.8659C11.2 10.8622 11.2 10.8587 11.2 10.8552C11.2 10.8517 11.2 10.8481 11.2 10.8448C11.2 10.8413 11.2 10.8377 11.2 10.8342C11.2 10.8309 11.2 10.8273 11.2 10.824C11.2 10.8205 11.2 10.8171 11.2 10.8137C11.2 10.8102 11.2 10.8069 11.2 10.8035C11.2 10.8001 11.2 10.7968 11.2 10.7934C11.2 10.7901 11.2 10.7867 11.2 10.7835C11.2 10.7801 11.2 10.7768 11.2 10.7736C11.2 10.7702 11.2 10.767 11.2 10.7637C11.2 10.7605 11.2 10.7571 11.2 10.7539C11.2 10.7507 11.2 10.7475 11.2 10.7443C11.2 10.7411 11.2 10.7379 11.2 10.7347C11.2 10.7315 11.2 10.7283 11.2 10.7253C11.2 10.7221 11.2 10.7189 11.2 10.7158C11.2 10.7126 11.2 10.7096 11.2 10.7064C11.2 10.7033 11.2 10.7003 11.2 10.6973C11.2 10.6941 11.2 10.691 11.2 10.688C11.2 10.6849 11.2 10.6819 11.2 10.6789C11.2 10.6758 11.2 10.6729 11.2 10.6699C11.2 10.6669 11.2 10.664 11.2 10.6609C11.2 10.6581 11.2 10.655 11.2 10.6521C11.2 10.6491 11.2 10.6462 11.2 10.6433C11.2 10.6405 11.2 10.6376 11.2 10.6347C11.2 10.6318 11.2 10.6289 11.2 10.6261C11.2 10.6232 11.2 10.6203 11.2 10.6174C11.2 10.6147 11.2 10.6118 11.2 10.6091C11.2 10.6062 11.2 10.6035 11.2 10.6006C11.2 10.5979 11.2 10.5952 11.2 10.5923C11.2 10.5896 11.2 10.5869 11.2 10.5841C11.2 10.5814 11.2 10.5787 11.2 10.576C11.2 10.5733 11.2 10.5705 11.2 10.568C11.2 10.5653 11.2 10.5625 11.2 10.56C11.2 10.5573 11.2 10.5545 11.2 10.552C11.2 10.5494 11.2 10.5467 11.2 10.5441C11.2 10.5416 11.2 10.5389 11.2 10.5363C11.2 10.5337 11.2 10.5312 11.2 10.5286C11.2 10.5261 11.2 10.5235 11.2 10.5211C11.2 10.5185 11.2 10.516 11.2 10.5134C11.2 10.511 11.2 10.5085 11.2 10.5061C11.2 10.5035 11.2 10.5011 11.2 10.4985C11.2 10.4961 11.2 10.4937 11.2 10.4913C11.2 10.4888 11.2 10.4864 11.2 10.484C11.2 10.4816 11.2 10.4792 11.2 10.4768C11.2 10.4744 11.2 10.4721 11.2 10.4697C11.2 10.4673 11.2 10.4649 11.2 10.4627C11.2 10.4603 11.2 10.4581 11.2 10.4557C11.2 10.4534 11.2 10.451 11.2 10.4488C11.2 10.4465 11.2 10.4441 11.2 10.4419C11.2 10.4397 11.2 10.4374 11.2 10.4352C11.2 10.4329 11.2 10.4307 11.2 10.4285C11.2 10.4262 11.2 10.424 11.2 10.4219C11.2 10.4197 11.2 10.4174 11.2 10.4153C11.2 10.4131 11.2 10.411 11.2 10.4088C11.2 10.4067 11.2 10.4045 11.2 10.4024C11.2 10.4003 11.2 10.3981 11.2 10.396C11.2 10.3939 11.2 10.3918 11.2 10.3897C11.2 10.3877 11.2 10.3856 11.2 10.3835C11.2 10.3814 11.2 10.3793 11.2 10.3774C11.2 10.3753 11.2 10.3733 11.2 10.3713C11.2 10.3693 11.2 10.3673 11.2 10.3653C11.2 10.3633 11.2 10.3613 11.2 10.3593C11.2 10.3573 11.2 10.3553 11.2 10.3534C11.2 10.3515 11.2 10.3496 11.2 10.3477C11.2 10.3457 11.2 10.3438 11.2 10.3419C11.2 10.34 11.2 10.3381 11.2 10.3361C11.2 10.3342 11.2 10.3323 11.2 10.3305C11.2 10.3286 11.2 10.3267 11.2 10.3249C11.2 10.323 11.2 10.3213 11.2 10.3195C11.2 10.3176 11.2 10.3158 11.2 10.3139C11.2 10.3121 11.2 10.3104 11.2 10.3086C11.2 10.3069 11.2 10.3051 11.2 10.3033C11.2 10.3016 11.2 10.2998 11.2 10.2981C11.2 10.2963 11.2 10.2945 11.2 10.2928C11.2 10.291 11.2 10.2894 11.2 10.2877C11.2 10.2859 11.2 10.2843 11.2 10.2825C11.2 10.2809 11.2 10.2792 11.2 10.2776C11.2 10.276 11.2 10.2742 11.2 10.2726C11.2 10.271 11.2 10.2694 11.2 10.2677C11.2 10.2661 11.2 10.2645 11.2 10.2629C11.2 10.2613 11.2 10.2597 11.2 10.2581C11.2 10.2565 11.2 10.255 11.2 10.2534C11.2 10.2518 11.2 10.2502 11.2 10.2488C11.2 10.2472 11.2 10.2456 11.2 10.2441C11.2 10.2425 11.2 10.2411 11.2 10.2395C11.2 10.2381 11.2 10.2366 11.2 10.235C11.2 10.2336 11.2 10.2321 11.2 10.2307C11.2 10.2291 11.2 10.2277 11.2 10.2262C11.2 10.2248 11.2 10.2233 11.2 10.2219C11.2 10.2205 11.2 10.219 11.2 10.2177C11.2 10.2163 11.2 10.2149 11.2 10.2134C11.2 10.2121 11.2 10.2107 11.2 10.2093C11.2 10.208 11.2 10.2065 11.2 10.2053C11.2 10.2038 11.2 10.2025 11.2 10.2011C11.2 10.1998 11.2 10.1985 11.2 10.1971C11.2 10.1958 11.2 10.1945 11.2 10.1933C11.2 10.192 11.2 10.1905 11.2 10.1893C11.2 10.188 11.2 10.1867 11.2 10.1854C11.2 10.1841 11.2 10.183 11.2 10.1817C11.2 10.1805 11.2 10.1792 11.2 10.1779C11.2 10.1768 11.2 10.1755 11.2 10.1742C11.2 10.1731 11.2 10.1718 11.2 10.1707C11.2 10.1694 11.2 10.1683 11.2 10.167C11.2 10.1659 11.2 10.1648 11.2 10.1635C11.2 10.1624 11.2 10.1613 11.2 10.16C11.2 10.1589 11.2 10.1577 11.2 10.1566C11.2 10.1555 11.2 10.1544 11.2 10.1533C11.2 10.1521 11.2 10.151 11.2 10.1499C11.2 10.1488 11.2 10.1477 11.2 10.1467C11.2 10.1456 11.2 10.1445 11.2 10.1433C11.2 10.1424 11.2 10.1413 11.2 10.1401C11.2 10.1392 11.2 10.1381 11.2 10.1371C11.2 10.136 11.2 10.135 11.2 10.1339C11.2 10.1329 11.2 10.132 11.2 10.1309C11.2 10.1299 11.2 10.1289 11.2 10.128C11.2 10.127 11.2 10.1259 11.2 10.1249C11.2 10.124 11.2 10.123 11.2 10.1221C11.2 10.1211 11.2 10.1201 11.2 10.1192C11.2 10.1182 11.2 10.1173 11.2 10.1165C11.2 10.1155 11.2 10.1145 11.2 10.1136C11.2 10.1128 11.2 10.1118 11.2 10.1109C11.2 10.1101 11.2 10.1091 11.2 10.1081C11.2 10.1073 11.2 10.1064 11.2 10.1056C11.2 10.1048 11.2 10.1038 11.2 10.103C11.2 10.1021 11.2 10.1013 11.2 10.1005C11.2 10.0995 11.2 10.0987 11.2 10.0979C11.2 10.0971 11.2 10.0963 11.2 10.0955C11.2 10.0947 11.2 10.0937 11.2 10.0929C11.2 10.0921 11.2 10.0913 11.2 10.0907C11.2 10.0899 11.2 10.0891 11.2 10.0883C11.2 10.0875 11.2 10.0867 11.2 10.0861C11.2 10.0853 11.2 10.0845 11.2 10.0837C11.2 10.083 11.2 10.0822 11.2 10.0814C11.2 10.0808 11.2 10.08 11.2 10.0793C11.2 10.0785 11.2 10.0779 11.2 10.0771C11.2 10.0765 11.2 10.0758 11.2 10.075C11.2 10.0744 11.2 10.0737 11.2 10.0729C11.2 10.0723 11.2 10.0717 11.2 10.071C11.2 10.0704 11.2 10.0696 11.2 10.0689C11.2 10.0683 11.2 10.0677 11.2 10.067C11.2 10.0664 11.2 10.0657 11.2 10.0651C11.2 10.0645 11.2 10.0638 11.2 10.0632C11.2 10.0625 11.2 10.0621 11.2 10.0614C11.2 10.0608 11.2 10.0601 11.2 10.0597C11.2 10.059 11.2 10.0584 11.2 10.0577C11.2 10.0573 11.2 10.0566 11.2 10.0561C11.2 10.0555 11.2 10.055 11.2 10.0544C11.2 10.0537 11.2 10.0533 11.2 10.0528C11.2 10.0521 11.2 10.0517 11.2 10.051C11.2 10.0505 11.2 10.0501 11.2 10.0494C11.2 10.0499 11.2 10.0489 11.2 10.0494C11.2 10.0488 11.2 10.0469 11.2 10.0464C11.2 10.0469 11.2 10.0459 11.2 10.0464C11.2 10.0459 11.2 10.044 11.2 10.0435C11.2 10.044 11.2 10.043 11.2 10.0435C11.2 10.043 11.2 10.0411 11.2 10.0406C11.2 10.0411 11.2 10.0401 11.2 10.0406C11.2 10.0401 11.2 10.0384 11.2 10.0379C11.2 10.0382 11.2 10.0374 11.2 10.0379C11.2 10.0374 11.2 10.0357 11.2 10.0353C11.2 10.0358 11.2 10.0349 11.2 10.0353C11.2 10.0349 11.2 10.0333 11.2 10.0328C11.2 10.0331 11.2 10.0325 11.2 10.0328C11.2 10.0325 11.2 10.0309 11.2 10.0305C11.2 10.0309 11.2 10.0301 11.2 10.0305C11.2 10.0301 11.2 10.0286 11.2 10.0283C11.2 10.0286 11.2 10.028 11.2 10.0283C11.2 10.028 11.2 10.0265 11.2 10.0262C11.2 10.0265 11.2 10.0257 11.2 10.0262C11.2 10.0259 11.2 10.0245 11.2 10.0241C11.2 10.0245 11.2 10.0238 11.2 10.0241C11.2 10.0238 11.2 10.0225 11.2 10.0222C11.2 10.0225 11.2 10.0219 11.2 10.0222C11.2 10.0219 11.2 10.0208 11.2 10.0205C11.2 10.0208 11.2 10.0201 11.2 10.0205C11.2 10.0203 11.2 10.019 11.2 10.0187C11.2 10.0184 11.2 10.0166 11.2 10.0163C11.2 10.0161 11.2 10.0144 11.2 10.0142C11.2 10.0141 11.2 10.0125 11.2 10.0123C11.2 10.0121 11.2 10.0107 11.2 10.0104C11.2 10.0102 11.2 10.0091 11.2 10.0088C11.2 10.0086 11.2 10.0072 11.2 10.007C11.2 10.0072 11.2 10.0069 11.2 10.007C11.2 10.0069 11.2 10.0056 11.2 10.0054C11.2 10.0053 11.2 10.0037 11.2 10.0035C11.2 10.0035 11.2 10.0021 11.2 10.0019C11.2 10.0017 11.2 9.99999 11.2 9.99999H9.99999ZM11.2 9.99999V1.99999H8.79999V9.99999H11.2Z" fill="white"/>
</svg>
