<svg width="32" height="32" viewBox="0 0 32 32" fill="none" xmlns="http://www.w3.org/2000/svg">
<path d="M9.59989 15.04C9.0697 15.04 8.63989 15.4698 8.63989 16C8.63989 16.5302 9.0697 16.96 9.59989 16.96V15.04ZM15.9999 16.96C16.5301 16.96 16.9599 16.5302 16.9599 16C16.9599 15.4698 16.5301 15.04 15.9999 15.04V16.96ZM15.9999 15.04C15.4697 15.04 15.0399 15.4698 15.0399 16C15.0399 16.5302 15.4697 16.96 15.9999 16.96V15.04ZM22.3999 16.96C22.9301 16.96 23.3599 16.5302 23.3599 16C23.3599 15.4698 22.9301 15.04 22.3999 15.04V16.96ZM16.9599 16C16.9599 15.4698 16.5301 15.04 15.9999 15.04C15.4697 15.04 15.0399 15.4698 15.0399 16H16.9599ZM15.0399 22.4C15.0399 22.9302 15.4697 23.36 15.9999 23.36C16.5301 23.36 16.9599 22.9302 16.9599 22.4H15.0399ZM15.0399 16C15.0399 16.5302 15.4697 16.96 15.9999 16.96C16.5301 16.96 16.9599 16.5302 16.9599 16H15.0399ZM16.9599 9.60001C16.9599 9.06983 16.5301 8.64001 15.9999 8.64001C15.4697 8.64001 15.0399 9.06983 15.0399 9.60001H16.9599ZM9.59989 16.96H15.9999V15.04H9.59989V16.96ZM15.9999 16.96H22.3999V15.04H15.9999V16.96ZM15.9999 16H15.0399V16.0013C15.0399 16.0014 15.0399 16.0028 15.0399 16.0028C15.0399 16.0027 15.0399 16.003 15.0399 16.0028C15.0399 16.0028 15.0399 16.0042 15.0399 16.0044C15.0399 16.0042 15.0399 16.0045 15.0399 16.0044C15.0399 16.0045 15.0399 16.0055 15.0399 16.0056C15.0399 16.0058 15.0399 16.0069 15.0399 16.0071C15.0399 16.0072 15.0399 16.0082 15.0399 16.0083C15.0399 16.0085 15.0399 16.0096 15.0399 16.0099C15.0399 16.01 15.0399 16.0111 15.0399 16.0114C15.0399 16.0115 15.0399 16.0129 15.0399 16.0131C15.0399 16.0128 15.0399 16.0133 15.0399 16.0131C15.0399 16.0133 15.0399 16.0141 15.0399 16.0144C15.0399 16.0141 15.0399 16.0146 15.0399 16.0144C15.0399 16.0146 15.0399 16.0155 15.0399 16.0156C15.0399 16.0154 15.0399 16.0159 15.0399 16.0156C15.0399 16.0159 15.0399 16.0168 15.0399 16.017C15.0399 16.0168 15.0399 16.0173 15.0399 16.017C15.0399 16.0173 15.0399 16.0183 15.0399 16.0186C15.0399 16.0183 15.0399 16.0188 15.0399 16.0186C15.0399 16.0188 15.0399 16.0199 15.0399 16.0201C15.0399 16.0197 15.0399 16.0204 15.0399 16.0201C15.0399 16.0204 15.0399 16.0215 15.0399 16.0218C15.0399 16.0215 15.0399 16.022 15.0399 16.0218C15.0399 16.022 15.0399 16.0232 15.0399 16.0236C15.0399 16.0232 15.0399 16.0238 15.0399 16.0236C15.0399 16.0238 15.0399 16.0251 15.0399 16.0254C15.0399 16.0251 15.0399 16.0256 15.0399 16.0254C15.0399 16.0257 15.0399 16.0269 15.0399 16.0273C15.0399 16.0269 15.0399 16.0277 15.0399 16.0273C15.0399 16.0275 15.0399 16.0289 15.0399 16.0293C15.0399 16.0289 15.0399 16.0296 15.0399 16.0293C15.0399 16.0297 15.0399 16.031 15.0399 16.0314C15.0399 16.031 15.0399 16.0318 15.0399 16.0314C15.0399 16.0318 15.0399 16.0333 15.0399 16.0337C15.0399 16.0333 15.0399 16.0341 15.0399 16.0337C15.0399 16.0341 15.0399 16.0356 15.0399 16.036C15.0399 16.0356 15.0399 16.0364 15.0399 16.036C15.0399 16.0364 15.0399 16.0379 15.0399 16.0384C15.0399 16.038 15.0399 16.0388 15.0399 16.0384C15.0399 16.0389 15.0399 16.0405 15.0399 16.0408C15.0399 16.0414 15.0399 16.0417 15.0399 16.0423C15.0399 16.0426 15.0399 16.043 15.0399 16.0435C15.0399 16.044 15.0399 16.0444 15.0399 16.0449C15.0399 16.0453 15.0399 16.0458 15.0399 16.0462C15.0399 16.0467 15.0399 16.0472 15.0399 16.0478C15.0399 16.0481 15.0399 16.0487 15.0399 16.0492C15.0399 16.0497 15.0399 16.0501 15.0399 16.0506C15.0399 16.0511 15.0399 16.0516 15.0399 16.0521C15.0399 16.0526 15.0399 16.0531 15.0399 16.0536C15.0399 16.0542 15.0399 16.0547 15.0399 16.0552C15.0399 16.0557 15.0399 16.0563 15.0399 16.0568C15.0399 16.0574 15.0399 16.0579 15.0399 16.0584C15.0399 16.059 15.0399 16.0595 15.0399 16.06C15.0399 16.0607 15.0399 16.0612 15.0399 16.0617C15.0399 16.0624 15.0399 16.0629 15.0399 16.0635C15.0399 16.064 15.0399 16.0647 15.0399 16.0652C15.0399 16.0658 15.0399 16.0664 15.0399 16.067C15.0399 16.0676 15.0399 16.0682 15.0399 16.0689C15.0399 16.0694 15.0399 16.07 15.0399 16.0707C15.0399 16.0713 15.0399 16.0719 15.0399 16.0726C15.0399 16.0731 15.0399 16.0737 15.0399 16.0744C15.0399 16.075 15.0399 16.0758 15.0399 16.0764C15.0399 16.0771 15.0399 16.0777 15.0399 16.0784C15.0399 16.079 15.0399 16.0796 15.0399 16.0804C15.0399 16.081 15.0399 16.0817 15.0399 16.0824C15.0399 16.0831 15.0399 16.0839 15.0399 16.0845C15.0399 16.0851 15.0399 16.0859 15.0399 16.0865C15.0399 16.0873 15.0399 16.0881 15.0399 16.0887C15.0399 16.0895 15.0399 16.0903 15.0399 16.0909C15.0399 16.0917 15.0399 16.0924 15.0399 16.0932C15.0399 16.0938 15.0399 16.0946 15.0399 16.0954C15.0399 16.0961 15.0399 16.0969 15.0399 16.0977C15.0399 16.0984 15.0399 16.0992 15.0399 16.1C15.0399 16.1008 15.0399 16.1016 15.0399 16.1024C15.0399 16.1032 15.0399 16.104 15.0399 16.1047C15.0399 16.1056 15.0399 16.1064 15.0399 16.1072C15.0399 16.108 15.0399 16.1088 15.0399 16.1097C15.0399 16.1105 15.0399 16.1114 15.0399 16.1121C15.0399 16.113 15.0399 16.1139 15.0399 16.1147C15.0399 16.1156 15.0399 16.1165 15.0399 16.1174C15.0399 16.1182 15.0399 16.1191 15.0399 16.12C15.0399 16.1208 15.0399 16.1217 15.0399 16.1226C15.0399 16.1235 15.0399 16.1244 15.0399 16.1253C15.0399 16.1262 15.0399 16.1271 15.0399 16.128C15.0399 16.129 15.0399 16.1299 15.0399 16.1308C15.0399 16.1319 15.0399 16.1328 15.0399 16.1336C15.0399 16.1347 15.0399 16.1356 15.0399 16.1366C15.0399 16.1375 15.0399 16.1385 15.0399 16.1394C15.0399 16.1404 15.0399 16.1415 15.0399 16.1424C15.0399 16.1434 15.0399 16.1444 15.0399 16.1454C15.0399 16.1464 15.0399 16.1473 15.0399 16.1484C15.0399 16.1494 15.0399 16.1504 15.0399 16.1514C15.0399 16.1525 15.0399 16.1536 15.0399 16.1546C15.0399 16.1557 15.0399 16.1567 15.0399 16.1577C15.0399 16.1589 15.0399 16.1599 15.0399 16.1609C15.0399 16.1621 15.0399 16.1631 15.0399 16.1642C15.0399 16.1653 15.0399 16.1664 15.0399 16.1674C15.0399 16.1686 15.0399 16.1697 15.0399 16.1708C15.0399 16.1719 15.0399 16.1731 15.0399 16.1742C15.0399 16.1752 15.0399 16.1764 15.0399 16.1775C15.0399 16.1787 15.0399 16.1799 15.0399 16.181C15.0399 16.1822 15.0399 16.1833 15.0399 16.1846C15.0399 16.1857 15.0399 16.1869 15.0399 16.188C15.0399 16.1893 15.0399 16.1905 15.0399 16.1916C15.0399 16.1929 15.0399 16.1941 15.0399 16.1953C15.0399 16.1965 15.0399 16.1978 15.0399 16.1991C15.0399 16.2002 15.0399 16.2015 15.0399 16.2028C15.0399 16.204 15.0399 16.2052 15.0399 16.2065C15.0399 16.2078 15.0399 16.209 15.0399 16.2103C15.0399 16.2116 15.0399 16.2129 15.0399 16.2142C15.0399 16.2156 15.0399 16.2168 15.0399 16.2181C15.0399 16.2194 15.0399 16.2208 15.0399 16.2221C15.0399 16.2234 15.0399 16.2248 15.0399 16.2261C15.0399 16.2275 15.0399 16.2288 15.0399 16.2302C15.0399 16.2316 15.0399 16.2328 15.0399 16.2343C15.0399 16.2357 15.0399 16.2371 15.0399 16.2385C15.0399 16.2399 15.0399 16.2413 15.0399 16.2427C15.0399 16.2441 15.0399 16.2455 15.0399 16.2469C15.0399 16.2483 15.0399 16.2497 15.0399 16.2512C15.0399 16.2527 15.0399 16.2541 15.0399 16.2556C15.0399 16.257 15.0399 16.2584 15.0399 16.26C15.0399 16.2614 15.0399 16.2629 15.0399 16.2645C15.0399 16.2659 15.0399 16.2674 15.0399 16.2689C15.0399 16.2705 15.0399 16.272 15.0399 16.2736C15.0399 16.2751 15.0399 16.2766 15.0399 16.2782C15.0399 16.2797 15.0399 16.2812 15.0399 16.2828C15.0399 16.2843 15.0399 16.2858 15.0399 16.2875C15.0399 16.289 15.0399 16.2907 15.0399 16.2922C15.0399 16.2939 15.0399 16.2954 15.0399 16.2971C15.0399 16.2986 15.0399 16.3003 15.0399 16.302C15.0399 16.3035 15.0399 16.3052 15.0399 16.3068C15.0399 16.3085 15.0399 16.3102 15.0399 16.3118C15.0399 16.3135 15.0399 16.3152 15.0399 16.3168C15.0399 16.3185 15.0399 16.3203 15.0399 16.3219C15.0399 16.3236 15.0399 16.3254 15.0399 16.3271C15.0399 16.3288 15.0399 16.3305 15.0399 16.3323C15.0399 16.334 15.0399 16.3358 15.0399 16.3375C15.0399 16.3392 15.0399 16.341 15.0399 16.3428C15.0399 16.3446 15.0399 16.3464 15.0399 16.3482C15.0399 16.35 15.0399 16.3518 15.0399 16.3536C15.0399 16.3553 15.0399 16.3573 15.0399 16.3591C15.0399 16.3608 15.0399 16.3628 15.0399 16.3646C15.0399 16.3665 15.0399 16.3683 15.0399 16.3702C15.0399 16.372 15.0399 16.3739 15.0399 16.3758C15.0399 16.3777 15.0399 16.3795 15.0399 16.3815C15.0399 16.3834 15.0399 16.3853 15.0399 16.3872C15.0399 16.3891 15.0399 16.3911 15.0399 16.3931C15.0399 16.395 15.0399 16.3969 15.0399 16.3989C15.0399 16.4009 15.0399 16.4028 15.0399 16.4049C15.0399 16.4068 15.0399 16.4088 15.0399 16.4108C15.0399 16.4128 15.0399 16.4149 15.0399 16.4169C15.0399 16.4188 15.0399 16.4209 15.0399 16.4229C15.0399 16.425 15.0399 16.427 15.0399 16.4291C15.0399 16.4311 15.0399 16.4333 15.0399 16.4353C15.0399 16.4374 15.0399 16.4396 15.0399 16.4416C15.0399 16.4437 15.0399 16.4458 15.0399 16.448C15.0399 16.4501 15.0399 16.4522 15.0399 16.4544C15.0399 16.4565 15.0399 16.4586 15.0399 16.4608C15.0399 16.463 15.0399 16.4652 15.0399 16.4673C15.0399 16.4695 15.0399 16.4717 15.0399 16.4739C15.0399 16.4762 15.0399 16.4784 15.0399 16.4805C15.0399 16.4828 15.0399 16.485 15.0399 16.4873C15.0399 16.4895 15.0399 16.4918 15.0399 16.494C15.0399 16.4963 15.0399 16.4986 15.0399 16.5009C15.0399 16.5032 15.0399 16.5055 15.0399 16.5078C15.0399 16.5101 15.0399 16.5124 15.0399 16.5147C15.0399 16.517 15.0399 16.5193 15.0399 16.5217C15.0399 16.524 15.0399 16.5265 15.0399 16.5288C15.0399 16.5312 15.0399 16.5335 15.0399 16.536C15.0399 16.5384 15.0399 16.5407 15.0399 16.5431C15.0399 16.5456 15.0399 16.548 15.0399 16.5504C15.0399 16.5528 15.0399 16.5553 15.0399 16.5578C15.0399 16.5603 15.0399 16.5627 15.0399 16.5651C15.0399 16.5677 15.0399 16.5701 15.0399 16.5727C15.0399 16.5751 15.0399 16.5777 15.0399 16.5802C15.0399 16.5827 15.0399 16.5852 15.0399 16.5878C15.0399 16.5904 15.0399 16.5929 15.0399 16.5955C15.0399 16.598 15.0399 16.6006 15.0399 16.6032C15.0399 16.6057 15.0399 16.6084 15.0399 16.611C15.0399 16.6136 15.0399 16.6162 15.0399 16.6189C15.0399 16.6215 15.0399 16.6241 15.0399 16.6268C15.0399 16.6294 15.0399 16.6321 15.0399 16.6348C15.0399 16.6375 15.0399 16.6401 15.0399 16.6428C15.0399 16.6455 15.0399 16.6482 15.0399 16.651C15.0399 16.6537 15.0399 16.6564 15.0399 16.6592C15.0399 16.6619 15.0399 16.6647 15.0399 16.6674C15.0399 16.6702 15.0399 16.673 15.0399 16.6759C15.0399 16.6785 15.0399 16.6814 15.0399 16.6842C15.0399 16.687 15.0399 16.6898 15.0399 16.6927C15.0399 16.6956 15.0399 16.6984 15.0399 16.7012C15.0399 16.7041 15.0399 16.707 15.0399 16.7099C15.0399 16.7127 15.0399 16.7157 15.0399 16.7186C15.0399 16.7214 15.0399 16.7244 15.0399 16.7273C15.0399 16.7303 15.0399 16.7332 15.0399 16.7361C15.0399 16.7391 15.0399 16.742 15.0399 16.7451C15.0399 16.748 15.0399 16.751 15.0399 16.7541C15.0399 16.757 15.0399 16.7601 15.0399 16.7632C15.0399 16.7661 15.0399 16.7692 15.0399 16.7722C15.0399 16.7753 15.0399 16.7784 15.0399 16.7815C15.0399 16.7845 15.0399 16.7876 15.0399 16.7907C15.0399 16.7937 15.0399 16.7969 15.0399 16.8C15.0399 16.8031 15.0399 16.8063 15.0399 16.8095C15.0399 16.8126 15.0399 16.8158 15.0399 16.819C15.0399 16.822 15.0399 16.8252 15.0399 16.8284C15.0399 16.8316 15.0399 16.8348 15.0399 16.8382C15.0399 16.8414 15.0399 16.8446 15.0399 16.8478C15.0399 16.8511 15.0399 16.8543 15.0399 16.8576C15.0399 16.8608 15.0399 16.8641 15.0399 16.8675C15.0399 16.8708 15.0399 16.874 15.0399 16.8773C15.0399 16.8807 15.0399 16.884 15.0399 16.8874C15.0399 16.8908 15.0399 16.8941 15.0399 16.8974C15.0399 16.9009 15.0399 16.9042 15.0399 16.9077C15.0399 16.911 15.0399 16.9144 15.0399 16.9179C15.0399 16.9214 15.0399 16.9247 15.0399 16.9281C15.0399 16.9316 15.0399 16.9351 15.0399 16.9385C15.0399 16.9421 15.0399 16.9455 15.0399 16.949C15.0399 16.9526 15.0399 16.956 15.0399 16.9596C15.0399 16.9631 15.0399 16.9667 15.0399 16.9703C15.0399 16.9737 15.0399 16.9773 15.0399 16.9809C15.0399 16.9845 15.0399 16.988 15.0399 16.9916C15.0399 16.9953 15.0399 16.9989 15.0399 17.0025C15.0399 17.0062 15.0399 17.0098 15.0399 17.0135C15.0399 17.0171 15.0399 17.0208 15.0399 17.0245C15.0399 17.0282 15.0399 17.0318 15.0399 17.0355C15.0399 17.0392 15.0399 17.0431 15.0399 17.0468C15.0399 17.0505 15.0399 17.0542 15.0399 17.0581C15.0399 17.0618 15.0399 17.0656 15.0399 17.0693C15.0399 17.0732 15.0399 17.077 15.0399 17.0807C15.0399 17.0846 15.0399 17.0884 15.0399 17.0922C15.0399 17.0961 15.0399 17.0999 15.0399 17.1039C15.0399 17.1077 15.0399 17.1116 15.0399 17.1155C15.0399 17.1194 15.0399 17.1233 15.0399 17.1273C15.0399 17.1312 15.0399 17.1351 15.0399 17.1391C15.0399 17.1431 15.0399 17.147 15.0399 17.151C15.0399 17.155 15.0399 17.1589 15.0399 17.163C15.0399 17.167 15.0399 17.171 15.0399 17.1751C15.0399 17.179 15.0399 17.1831 15.0399 17.1872C15.0399 17.1913 15.0399 17.1954 15.0399 17.1995C15.0399 17.2035 15.0399 17.2077 15.0399 17.2118C15.0399 17.2159 15.0399 17.22 15.0399 17.2242C15.0399 17.2283 15.0399 17.2325 15.0399 17.2366C15.0399 17.2408 15.0399 17.2451 15.0399 17.2493C15.0399 17.2534 15.0399 17.2576 15.0399 17.2618C15.0399 17.2662 15.0399 17.2704 15.0399 17.2746C15.0399 17.2789 15.0399 17.2832 15.0399 17.2874C15.0399 17.2918 15.0399 17.296 15.0399 17.3004C15.0399 17.3047 15.0399 17.3091 15.0399 17.3134C15.0399 17.3178 15.0399 17.3221 15.0399 17.3265C15.0399 17.3308 15.0399 17.3353 15.0399 17.3397C15.0399 17.344 15.0399 17.3485 15.0399 17.353C15.0399 17.3573 15.0399 17.3618 15.0399 17.3663C15.0399 17.3708 15.0399 17.3752 15.0399 17.3797C15.0399 17.3842 15.0399 17.3887 15.0399 17.3933C15.0399 17.3978 15.0399 17.4023 15.0399 17.4069C15.0399 17.4115 15.0399 17.416 15.0399 17.4206C15.0399 17.4252 15.0399 17.4298 15.0399 17.4344C15.0399 17.439 15.0399 17.4436 15.0399 17.4482C15.0399 17.4528 15.0399 17.4576 15.0399 17.4622C15.0399 17.4669 15.0399 17.4715 15.0399 17.4762C15.0399 17.481 15.0399 17.4857 15.0399 17.4904C15.0399 17.4952 15.0399 17.4999 15.0399 17.5047C15.0399 17.5094 15.0399 17.5141 15.0399 17.519C15.0399 17.5237 15.0399 17.5286 15.0399 17.5335C15.0399 17.5382 15.0399 17.5431 15.0399 17.5479C15.0399 17.5528 15.0399 17.5576 15.0399 17.5625C15.0399 17.5674 15.0399 17.5722 15.0399 17.5772C15.0399 17.5821 15.0399 17.5871 15.0399 17.592C15.0399 17.5969 15.0399 17.6019 15.0399 17.6069C15.0399 17.6118 15.0399 17.6168 15.0399 17.6219C15.0399 17.6269 15.0399 17.6319 15.0399 17.6369C15.0399 17.642 15.0399 17.647 15.0399 17.6521C15.0399 17.6571 15.0399 17.6622 15.0399 17.6673C15.0399 17.6725 15.0399 17.6776 15.0399 17.6827C15.0399 17.6878 15.0399 17.6929 15.0399 17.6981C15.0399 17.7033 15.0399 17.7084 15.0399 17.7137C15.0399 17.7188 15.0399 17.724 15.0399 17.7293C15.0399 17.7344 15.0399 17.7397 15.0399 17.7449C15.0399 17.7503 15.0399 17.7555 15.0399 17.7608C15.0399 17.766 15.0399 17.7714 15.0399 17.7767C15.0399 17.782 15.0399 17.7874 15.0399 17.7927C15.0399 17.798 15.0399 17.8034 15.0399 17.8088C15.0399 17.8142 15.0399 17.8195 15.0399 17.825C15.0399 17.8304 15.0399 17.8358 15.0399 17.8413C15.0399 17.8468 15.0399 17.8522 15.0399 17.8577C15.0399 17.8632 15.0399 17.8687 15.0399 17.8742C15.0399 17.8797 15.0399 17.8852 15.0399 17.8907C15.0399 17.8963 15.0399 17.9018 15.0399 17.9075C15.0399 17.913 15.0399 17.9186 15.0399 17.9242C15.0399 17.9299 15.0399 17.9355 15.0399 17.9411C15.0399 17.9468 15.0399 17.9524 15.0399 17.958C15.0399 17.9638 15.0399 17.9694 15.0399 17.9752C15.0399 17.9808 15.0399 17.9866 15.0399 17.9923C15.0399 17.9981 15.0399 18.0039 15.0399 18.0096C15.0399 18.0154 15.0399 18.0211 15.0399 18.027C15.0399 18.0328 15.0399 18.0387 15.0399 18.0444C15.0399 18.0503 15.0399 18.0562 15.0399 18.062C15.0399 18.0679 15.0399 18.0737 15.0399 18.0798C15.0399 18.0856 15.0399 18.0915 15.0399 18.0974C15.0399 18.1034 15.0399 18.1093 15.0399 18.1153C15.0399 18.1214 15.0399 18.1274 15.0399 18.1334C15.0399 18.1393 15.0399 18.1454 15.0399 18.1514C15.0399 18.1575 15.0399 18.1635 15.0399 18.1696C15.0399 18.1756 15.0399 18.1818 15.0399 18.1879C15.0399 18.1939 15.0399 18.2001 15.0399 18.2062C15.0399 18.2124 15.0399 18.2185 15.0399 18.2248C15.0399 18.2309 15.0399 18.2371 15.0399 18.2433C15.0399 18.2496 15.0399 18.2558 15.0399 18.262C15.0399 18.2683 15.0399 18.2746 15.0399 18.2808C15.0399 18.2871 15.0399 18.2934 15.0399 18.2998C15.0399 18.3061 15.0399 18.3123 15.0399 18.3187C15.0399 18.3251 15.0399 18.3314 15.0399 18.3378C15.0399 18.3442 15.0399 18.3506 15.0399 18.357C15.0399 18.3635 15.0399 18.3699 15.0399 18.3763C15.0399 18.3829 15.0399 18.3893 15.0399 18.3958C15.0399 18.4023 15.0399 18.4088 15.0399 18.4154C15.0399 18.4219 15.0399 18.4284 15.0399 18.435C15.0399 18.4415 15.0399 18.4481 15.0399 18.4547C15.0399 18.4613 15.0399 18.468 15.0399 18.4745C15.0399 18.4812 15.0399 18.4878 15.0399 18.4945C15.0399 18.5011 15.0399 18.5079 15.0399 18.5146C15.0399 18.5212 15.0399 18.528 15.0399 18.5348C15.0399 18.5415 15.0399 18.5482 15.0399 18.555C15.0399 18.5618 15.0399 18.5686 15.0399 18.5754C15.0399 18.5823 15.0399 18.5891 15.0399 18.5959C15.0399 18.6028 15.0399 18.6097 15.0399 18.6165C15.0399 18.6234 15.0399 18.6303 15.0399 18.6372C15.0399 18.6441 15.0399 18.6512 15.0399 18.6581C15.0399 18.665 15.0399 18.672 15.0399 18.6789C15.0399 18.686 15.0399 18.693 15.0399 18.7C15.0399 18.7071 15.0399 18.7141 15.0399 18.7212C15.0399 18.7282 15.0399 18.7354 15.0399 18.7424C15.0399 18.7496 15.0399 18.7566 15.0399 18.7638C15.0399 18.771 15.0399 18.7781 15.0399 18.7853C15.0399 18.7925 15.0399 18.7996 15.0399 18.8069C15.0399 18.8141 15.0399 18.8213 15.0399 18.8286C15.0399 18.8359 15.0399 18.8432 15.0399 18.8503C15.0399 18.8576 15.0399 18.865 15.0399 18.8723C15.0399 18.8796 15.0399 18.8869 15.0399 18.8944C15.0399 18.9016 15.0399 18.9091 15.0399 18.9165C15.0399 18.9239 15.0399 18.9313 15.0399 18.9388C15.0399 18.9462 15.0399 18.9536 15.0399 18.9612C15.0399 18.9686 15.0399 18.9761 15.0399 18.9836C15.0399 18.9911 15.0399 18.9987 15.0399 19.0062C15.0399 19.0138 15.0399 19.0213 15.0399 19.0289C15.0399 19.0366 15.0399 19.0441 15.0399 19.0518C15.0399 19.0593 15.0399 19.067 15.0399 19.0747C15.0399 19.0824 15.0399 19.0901 15.0399 19.0977C15.0399 19.1054 15.0399 19.1132 15.0399 19.1209C15.0399 19.1287 15.0399 19.1364 15.0399 19.1442C15.0399 19.152 15.0399 19.1598 15.0399 19.1676C15.0399 19.1754 15.0399 19.1834 15.0399 19.1912C15.0399 19.199 15.0399 19.2069 15.0399 19.2149C15.0399 19.2227 15.0399 19.2306 15.0399 19.2385C15.0399 19.2465 15.0399 19.2544 15.0399 19.2625C15.0399 19.2704 15.0399 19.2784 15.0399 19.2864C15.0399 19.2945 15.0399 19.3024 15.0399 19.3105C15.0399 19.3185 15.0399 19.3266 15.0399 19.3348C15.0399 19.3429 15.0399 19.3509 15.0399 19.3591C15.0399 19.3672 15.0399 19.3754 15.0399 19.3836C15.0399 19.3918 15.0399 19.4 15.0399 19.4081C15.0399 19.4163 15.0399 19.4245 15.0399 19.4328C15.0399 19.441 15.0399 19.4494 15.0399 19.4577C15.0399 19.4659 15.0399 19.4742 15.0399 19.4826C15.0399 19.491 15.0399 19.4993 15.0399 19.5076C15.0399 19.516 15.0399 19.5244 15.0399 19.5328C15.0399 19.5413 15.0399 19.5497 15.0399 19.5582C15.0399 19.5666 15.0399 19.5751 15.0399 19.5835C15.0399 19.592 15.0399 19.6005 15.0399 19.6091C15.0399 19.6176 15.0399 19.6261 15.0399 19.6347C15.0399 19.6433 15.0399 19.6519 15.0399 19.6604C15.0399 19.6691 15.0399 19.6777 15.0399 19.6864C15.0399 19.695 15.0399 19.7037 15.0399 19.7124C15.0399 19.7211 15.0399 19.7298 15.0399 19.7385C15.0399 19.7473 15.0399 19.756 15.0399 19.7649C15.0399 19.7736 15.0399 19.7824 15.0399 19.7912C15.0399 19.8001 15.0399 19.8089 15.0399 19.8177C15.0399 19.8266 15.0399 19.8354 15.0399 19.8444C15.0399 19.8532 15.0399 19.8622 15.0399 19.8711C15.0399 19.8801 15.0399 19.889 15.0399 19.898C15.0399 19.907 15.0399 19.9159 15.0399 19.925C15.0399 19.934 15.0399 19.9431 15.0399 19.9521C15.0399 19.9612 15.0399 19.9703 15.0399 19.9794C15.0399 19.9885 15.0399 19.9976 15.0399 20.0068C15.0399 20.0159 15.0399 20.0251 15.0399 20.0343C15.0399 20.0434 15.0399 20.0526 15.0399 20.062C15.0399 20.0712 15.0399 20.0804 15.0399 20.0896C15.0399 20.099 15.0399 20.1082 15.0399 20.1175C15.0399 20.1269 15.0399 20.1362 15.0399 20.1456C15.0399 20.1549 15.0399 20.1642 15.0399 20.1737C15.0399 20.1831 15.0399 20.1925 15.0399 20.202C15.0399 20.2113 15.0399 20.2208 15.0399 20.2303C15.0399 20.2399 15.0399 20.2494 15.0399 20.2588C15.0399 20.2684 15.0399 20.2779 15.0399 20.2875C15.0399 20.2971 15.0399 20.3067 15.0399 20.3163C15.0399 20.3259 15.0399 20.3355 15.0399 20.3452C15.0399 20.3548 15.0399 20.3646 15.0399 20.3743C15.0399 20.3839 15.0399 20.3936 15.0399 20.4033C15.0399 20.4131 15.0399 20.4229 15.0399 20.4327C15.0399 20.4425 15.0399 20.4522 15.0399 20.4621C15.0399 20.472 15.0399 20.4818 15.0399 20.4917C15.0399 20.5015 15.0399 20.5114 15.0399 20.5214C15.0399 20.5312 15.0399 20.5412 15.0399 20.5512C15.0399 20.561 15.0399 20.571 15.0399 20.5811C15.0399 20.5911 15.0399 20.6011 15.0399 20.6112C15.0399 20.6212 15.0399 20.6313 15.0399 20.6413C15.0399 20.6514 15.0399 20.6615 15.0399 20.6716C15.0399 20.6819 15.0399 20.692 15.0399 20.7022C15.0399 20.7123 15.0399 20.7226 15.0399 20.7328C15.0399 20.7429 15.0399 20.7532 15.0399 20.7635C15.0399 20.7738 15.0399 20.784 15.0399 20.7944C15.0399 20.8046 15.0399 20.815 15.0399 20.8254C15.0399 20.8357 15.0399 20.8461 15.0399 20.8565C15.0399 20.8668 15.0399 20.8773 15.0399 20.8877C15.0399 20.8982 15.0399 20.9087 15.0399 20.9192C15.0399 20.9297 15.0399 20.9402 15.0399 20.9507C15.0399 20.9612 15.0399 20.9718 15.0399 20.9823C15.0399 20.9929 15.0399 21.0035 15.0399 21.0142C15.0399 21.0248 15.0399 21.0354 15.0399 21.046C15.0399 21.0568 15.0399 21.0674 15.0399 21.0782C15.0399 21.0889 15.0399 21.0997 15.0399 21.1104C15.0399 21.1212 15.0399 21.1319 15.0399 21.1427C15.0399 21.1536 15.0399 21.1643 15.0399 21.1752C15.0399 21.1861 15.0399 21.1969 15.0399 21.2078C15.0399 21.2187 15.0399 21.2296 15.0399 21.2406C15.0399 21.2515 15.0399 21.2625 15.0399 21.2735C15.0399 21.2845 15.0399 21.2955 15.0399 21.3065C15.0399 21.3175 15.0399 21.3285 15.0399 21.3397C15.0399 21.3507 15.0399 21.3618 15.0399 21.3729C15.0399 21.3841 15.0399 21.3952 15.0399 21.4064C15.0399 21.4176 15.0399 21.4288 15.0399 21.44C15.0399 21.4511 15.0399 21.4624 15.0399 21.4737C15.0399 21.4849 15.0399 21.4962 15.0399 21.5076C15.0399 21.5189 15.0399 21.5301 15.0399 21.5415C15.0399 21.5529 15.0399 21.5643 15.0399 21.5757C15.0399 21.5871 15.0399 21.5985 15.0399 21.61C15.0399 21.6214 15.0399 21.6329 15.0399 21.6444C15.0399 21.6558 15.0399 21.6673 15.0399 21.679C15.0399 21.6905 15.0399 21.702 15.0399 21.7137C15.0399 21.7252 15.0399 21.7368 15.0399 21.7485C15.0399 21.7601 15.0399 21.7718 15.0399 21.7834C15.0399 21.7951 15.0399 21.8069 15.0399 21.8185C15.0399 21.8303 15.0399 21.8421 15.0399 21.8538C15.0399 21.8656 15.0399 21.8774 15.0399 21.8893C15.0399 21.9011 15.0399 21.913 15.0399 21.9248C15.0399 21.9367 15.0399 21.9486 15.0399 21.9605C15.0399 21.9724 15.0399 21.9844 15.0399 21.9963C15.0399 22.0083 15.0399 22.0202 15.0399 22.0323C15.0399 22.0443 15.0399 22.0563 15.0399 22.0684C15.0399 22.0805 15.0399 22.0926 15.0399 22.1047C15.0399 22.1168 15.0399 22.1289 15.0399 22.1411C15.0399 22.1532 15.0399 22.1654 15.0399 22.1777C15.0399 22.1898 15.0399 22.2021 15.0399 22.2143C15.0399 22.2266 15.0399 22.2389 15.0399 22.2511C15.0399 22.2634 15.0399 22.2759 15.0399 22.2881C15.0399 22.3006 15.0399 22.3128 15.0399 22.3253C15.0399 22.3377 15.0399 22.3501 15.0399 22.3626C15.0399 22.3751 15.0399 22.3875 15.0399 22.4H16.9599C16.9599 22.3875 16.9599 22.3751 16.9599 22.3626C16.9599 22.3501 16.9599 22.3377 16.9599 22.3253C16.9599 22.3128 16.9599 22.3006 16.9599 22.2881C16.9599 22.2759 16.9599 22.2634 16.9599 22.2511C16.9599 22.2389 16.9599 22.2266 16.9599 22.2143C16.9599 22.2021 16.9599 22.1898 16.9599 22.1777C16.9599 22.1654 16.9599 22.1532 16.9599 22.1411C16.9599 22.1289 16.9599 22.1168 16.9599 22.1047C16.9599 22.0926 16.9599 22.0805 16.9599 22.0684C16.9599 22.0563 16.9599 22.0443 16.9599 22.0323C16.9599 22.0202 16.9599 22.0083 16.9599 21.9963C16.9599 21.9844 16.9599 21.9724 16.9599 21.9605C16.9599 21.9486 16.9599 21.9367 16.9599 21.9248C16.9599 21.913 16.9599 21.9011 16.9599 21.8893C16.9599 21.8774 16.9599 21.8656 16.9599 21.8538C16.9599 21.8421 16.9599 21.8303 16.9599 21.8185C16.9599 21.8069 16.9599 21.7951 16.9599 21.7834C16.9599 21.7718 16.9599 21.7601 16.9599 21.7485C16.9599 21.7368 16.9599 21.7252 16.9599 21.7137C16.9599 21.702 16.9599 21.6905 16.9599 21.679C16.9599 21.6673 16.9599 21.6558 16.9599 21.6444C16.9599 21.6329 16.9599 21.6214 16.9599 21.61C16.9599 21.5985 16.9599 21.5871 16.9599 21.5757C16.9599 21.5643 16.9599 21.5529 16.9599 21.5415C16.9599 21.5301 16.9599 21.5189 16.9599 21.5076C16.9599 21.4962 16.9599 21.4849 16.9599 21.4737C16.9599 21.4624 16.9599 21.4511 16.9599 21.44C16.9599 21.4288 16.9599 21.4176 16.9599 21.4064C16.9599 21.3952 16.9599 21.3841 16.9599 21.3729C16.9599 21.3618 16.9599 21.3507 16.9599 21.3397C16.9599 21.3285 16.9599 21.3175 16.9599 21.3065C16.9599 21.2955 16.9599 21.2845 16.9599 21.2735C16.9599 21.2625 16.9599 21.2515 16.9599 21.2406C16.9599 21.2296 16.9599 21.2187 16.9599 21.2078C16.9599 21.1969 16.9599 21.1861 16.9599 21.1752C16.9599 21.1643 16.9599 21.1536 16.9599 21.1427C16.9599 21.1319 16.9599 21.1212 16.9599 21.1104C16.9599 21.0997 16.9599 21.0889 16.9599 21.0782C16.9599 21.0674 16.9599 21.0568 16.9599 21.046C16.9599 21.0354 16.9599 21.0248 16.9599 21.0142C16.9599 21.0035 16.9599 20.9929 16.9599 20.9823C16.9599 20.9718 16.9599 20.9612 16.9599 20.9507C16.9599 20.9402 16.9599 20.9297 16.9599 20.9192C16.9599 20.9087 16.9599 20.8982 16.9599 20.8877C16.9599 20.8773 16.9599 20.8668 16.9599 20.8565C16.9599 20.8461 16.9599 20.8357 16.9599 20.8254C16.9599 20.815 16.9599 20.8046 16.9599 20.7944C16.9599 20.784 16.9599 20.7738 16.9599 20.7635C16.9599 20.7532 16.9599 20.7429 16.9599 20.7328C16.9599 20.7226 16.9599 20.7123 16.9599 20.7022C16.9599 20.692 16.9599 20.6819 16.9599 20.6716C16.9599 20.6615 16.9599 20.6514 16.9599 20.6413C16.9599 20.6313 16.9599 20.6212 16.9599 20.6112C16.9599 20.6011 16.9599 20.5911 16.9599 20.5811C16.9599 20.571 16.9599 20.561 16.9599 20.5512C16.9599 20.5412 16.9599 20.5312 16.9599 20.5214C16.9599 20.5114 16.9599 20.5015 16.9599 20.4917C16.9599 20.4818 16.9599 20.472 16.9599 20.4621C16.9599 20.4522 16.9599 20.4425 16.9599 20.4327C16.9599 20.4229 16.9599 20.4131 16.9599 20.4033C16.9599 20.3936 16.9599 20.3839 16.9599 20.3743C16.9599 20.3646 16.9599 20.3548 16.9599 20.3452C16.9599 20.3355 16.9599 20.3259 16.9599 20.3163C16.9599 20.3067 16.9599 20.2971 16.9599 20.2875C16.9599 20.2779 16.9599 20.2684 16.9599 20.2588C16.9599 20.2494 16.9599 20.2399 16.9599 20.2303C16.9599 20.2208 16.9599 20.2113 16.9599 20.202C16.9599 20.1925 16.9599 20.1831 16.9599 20.1737C16.9599 20.1642 16.9599 20.1549 16.9599 20.1456C16.9599 20.1362 16.9599 20.1269 16.9599 20.1175C16.9599 20.1082 16.9599 20.099 16.9599 20.0896C16.9599 20.0804 16.9599 20.0712 16.9599 20.062C16.9599 20.0526 16.9599 20.0434 16.9599 20.0343C16.9599 20.0251 16.9599 20.0159 16.9599 20.0068C16.9599 19.9976 16.9599 19.9885 16.9599 19.9794C16.9599 19.9703 16.9599 19.9612 16.9599 19.9521C16.9599 19.9431 16.9599 19.934 16.9599 19.925C16.9599 19.9159 16.9599 19.907 16.9599 19.898C16.9599 19.889 16.9599 19.8801 16.9599 19.8711C16.9599 19.8622 16.9599 19.8532 16.9599 19.8444C16.9599 19.8354 16.9599 19.8266 16.9599 19.8177C16.9599 19.8089 16.9599 19.8001 16.9599 19.7912C16.9599 19.7824 16.9599 19.7736 16.9599 19.7649C16.9599 19.756 16.9599 19.7473 16.9599 19.7385C16.9599 19.7298 16.9599 19.7211 16.9599 19.7124C16.9599 19.7037 16.9599 19.695 16.9599 19.6864C16.9599 19.6777 16.9599 19.6691 16.9599 19.6604C16.9599 19.6519 16.9599 19.6433 16.9599 19.6347C16.9599 19.6261 16.9599 19.6176 16.9599 19.6091C16.9599 19.6005 16.9599 19.592 16.9599 19.5835C16.9599 19.5751 16.9599 19.5666 16.9599 19.5582C16.9599 19.5497 16.9599 19.5413 16.9599 19.5328C16.9599 19.5244 16.9599 19.516 16.9599 19.5076C16.9599 19.4993 16.9599 19.491 16.9599 19.4826C16.9599 19.4742 16.9599 19.4659 16.9599 19.4577C16.9599 19.4494 16.9599 19.441 16.9599 19.4328C16.9599 19.4245 16.9599 19.4163 16.9599 19.4081C16.9599 19.4 16.9599 19.3918 16.9599 19.3836C16.9599 19.3754 16.9599 19.3672 16.9599 19.3591C16.9599 19.3509 16.9599 19.3429 16.9599 19.3348C16.9599 19.3266 16.9599 19.3185 16.9599 19.3105C16.9599 19.3024 16.9599 19.2945 16.9599 19.2864C16.9599 19.2784 16.9599 19.2704 16.9599 19.2625C16.9599 19.2544 16.9599 19.2465 16.9599 19.2385C16.9599 19.2306 16.9599 19.2227 16.9599 19.2149C16.9599 19.2069 16.9599 19.199 16.9599 19.1912C16.9599 19.1834 16.9599 19.1754 16.9599 19.1676C16.9599 19.1598 16.9599 19.152 16.9599 19.1442C16.9599 19.1364 16.9599 19.1287 16.9599 19.1209C16.9599 19.1132 16.9599 19.1054 16.9599 19.0977C16.9599 19.0901 16.9599 19.0824 16.9599 19.0747C16.9599 19.067 16.9599 19.0593 16.9599 19.0518C16.9599 19.0441 16.9599 19.0366 16.9599 19.0289C16.9599 19.0213 16.9599 19.0138 16.9599 19.0062C16.9599 18.9987 16.9599 18.9911 16.9599 18.9836C16.9599 18.9761 16.9599 18.9686 16.9599 18.9612C16.9599 18.9536 16.9599 18.9462 16.9599 18.9388C16.9599 18.9313 16.9599 18.9239 16.9599 18.9165C16.9599 18.9091 16.9599 18.9016 16.9599 18.8944C16.9599 18.8869 16.9599 18.8796 16.9599 18.8723C16.9599 18.865 16.9599 18.8576 16.9599 18.8503C16.9599 18.8432 16.9599 18.8359 16.9599 18.8286C16.9599 18.8213 16.9599 18.8141 16.9599 18.8069C16.9599 18.7996 16.9599 18.7925 16.9599 18.7853C16.9599 18.7781 16.9599 18.771 16.9599 18.7638C16.9599 18.7566 16.9599 18.7496 16.9599 18.7424C16.9599 18.7354 16.9599 18.7282 16.9599 18.7212C16.9599 18.7141 16.9599 18.7071 16.9599 18.7C16.9599 18.693 16.9599 18.686 16.9599 18.6789C16.9599 18.672 16.9599 18.665 16.9599 18.6581C16.9599 18.6512 16.9599 18.6441 16.9599 18.6372C16.9599 18.6303 16.9599 18.6234 16.9599 18.6165C16.9599 18.6097 16.9599 18.6028 16.9599 18.5959C16.9599 18.5891 16.9599 18.5823 16.9599 18.5754C16.9599 18.5686 16.9599 18.5618 16.9599 18.555C16.9599 18.5482 16.9599 18.5415 16.9599 18.5348C16.9599 18.528 16.9599 18.5212 16.9599 18.5146C16.9599 18.5079 16.9599 18.5011 16.9599 18.4945C16.9599 18.4878 16.9599 18.4812 16.9599 18.4745C16.9599 18.468 16.9599 18.4613 16.9599 18.4547C16.9599 18.4481 16.9599 18.4415 16.9599 18.435C16.9599 18.4284 16.9599 18.4219 16.9599 18.4154C16.9599 18.4088 16.9599 18.4023 16.9599 18.3958C16.9599 18.3893 16.9599 18.3829 16.9599 18.3763C16.9599 18.3699 16.9599 18.3635 16.9599 18.357C16.9599 18.3506 16.9599 18.3442 16.9599 18.3378C16.9599 18.3314 16.9599 18.3251 16.9599 18.3187C16.9599 18.3123 16.9599 18.3061 16.9599 18.2998C16.9599 18.2934 16.9599 18.2871 16.9599 18.2808C16.9599 18.2746 16.9599 18.2683 16.9599 18.262C16.9599 18.2558 16.9599 18.2496 16.9599 18.2433C16.9599 18.2371 16.9599 18.2309 16.9599 18.2248C16.9599 18.2185 16.9599 18.2124 16.9599 18.2062C16.9599 18.2001 16.9599 18.1939 16.9599 18.1879C16.9599 18.1818 16.9599 18.1756 16.9599 18.1696C16.9599 18.1635 16.9599 18.1575 16.9599 18.1514C16.9599 18.1454 16.9599 18.1393 16.9599 18.1334C16.9599 18.1274 16.9599 18.1214 16.9599 18.1153C16.9599 18.1093 16.9599 18.1034 16.9599 18.0974C16.9599 18.0915 16.9599 18.0856 16.9599 18.0798C16.9599 18.0737 16.9599 18.0679 16.9599 18.062C16.9599 18.0562 16.9599 18.0503 16.9599 18.0444C16.9599 18.0387 16.9599 18.0328 16.9599 18.027C16.9599 18.0211 16.9599 18.0154 16.9599 18.0096C16.9599 18.0039 16.9599 17.9981 16.9599 17.9923C16.9599 17.9866 16.9599 17.9808 16.9599 17.9752C16.9599 17.9694 16.9599 17.9638 16.9599 17.958C16.9599 17.9524 16.9599 17.9468 16.9599 17.9411C16.9599 17.9355 16.9599 17.9299 16.9599 17.9242C16.9599 17.9186 16.9599 17.913 16.9599 17.9075C16.9599 17.9018 16.9599 17.8963 16.9599 17.8907C16.9599 17.8852 16.9599 17.8797 16.9599 17.8742C16.9599 17.8687 16.9599 17.8632 16.9599 17.8577C16.9599 17.8522 16.9599 17.8468 16.9599 17.8413C16.9599 17.8358 16.9599 17.8304 16.9599 17.825C16.9599 17.8195 16.9599 17.8142 16.9599 17.8088C16.9599 17.8034 16.9599 17.798 16.9599 17.7927C16.9599 17.7874 16.9599 17.782 16.9599 17.7767C16.9599 17.7714 16.9599 17.766 16.9599 17.7608C16.9599 17.7555 16.9599 17.7503 16.9599 17.7449C16.9599 17.7397 16.9599 17.7344 16.9599 17.7293C16.9599 17.724 16.9599 17.7188 16.9599 17.7137C16.9599 17.7084 16.9599 17.7033 16.9599 17.6981C16.9599 17.6929 16.9599 17.6878 16.9599 17.6827C16.9599 17.6776 16.9599 17.6725 16.9599 17.6673C16.9599 17.6622 16.9599 17.6571 16.9599 17.6521C16.9599 17.647 16.9599 17.642 16.9599 17.6369C16.9599 17.6319 16.9599 17.6269 16.9599 17.6219C16.9599 17.6168 16.9599 17.6118 16.9599 17.6069C16.9599 17.6019 16.9599 17.5969 16.9599 17.592C16.9599 17.5871 16.9599 17.5821 16.9599 17.5772C16.9599 17.5722 16.9599 17.5674 16.9599 17.5625C16.9599 17.5576 16.9599 17.5528 16.9599 17.5479C16.9599 17.5431 16.9599 17.5382 16.9599 17.5335C16.9599 17.5286 16.9599 17.5237 16.9599 17.519C16.9599 17.5141 16.9599 17.5094 16.9599 17.5047C16.9599 17.4999 16.9599 17.4952 16.9599 17.4904C16.9599 17.4857 16.9599 17.481 16.9599 17.4762C16.9599 17.4715 16.9599 17.4669 16.9599 17.4622C16.9599 17.4576 16.9599 17.4528 16.9599 17.4482C16.9599 17.4436 16.9599 17.439 16.9599 17.4344C16.9599 17.4298 16.9599 17.4252 16.9599 17.4206C16.9599 17.416 16.9599 17.4115 16.9599 17.4069C16.9599 17.4023 16.9599 17.3978 16.9599 17.3933C16.9599 17.3887 16.9599 17.3842 16.9599 17.3797C16.9599 17.3752 16.9599 17.3708 16.9599 17.3663C16.9599 17.3618 16.9599 17.3573 16.9599 17.353C16.9599 17.3485 16.9599 17.344 16.9599 17.3397C16.9599 17.3353 16.9599 17.3308 16.9599 17.3265C16.9599 17.3221 16.9599 17.3178 16.9599 17.3134C16.9599 17.3091 16.9599 17.3047 16.9599 17.3004C16.9599 17.296 16.9599 17.2918 16.9599 17.2874C16.9599 17.2832 16.9599 17.2789 16.9599 17.2746C16.9599 17.2704 16.9599 17.2662 16.9599 17.2618C16.9599 17.2576 16.9599 17.2534 16.9599 17.2493C16.9599 17.2451 16.9599 17.2408 16.9599 17.2366C16.9599 17.2325 16.9599 17.2283 16.9599 17.2242C16.9599 17.22 16.9599 17.2159 16.9599 17.2118C16.9599 17.2077 16.9599 17.2035 16.9599 17.1995C16.9599 17.1954 16.9599 17.1913 16.9599 17.1872C16.9599 17.1831 16.9599 17.179 16.9599 17.1751C16.9599 17.171 16.9599 17.167 16.9599 17.163C16.9599 17.1589 16.9599 17.155 16.9599 17.151C16.9599 17.147 16.9599 17.1431 16.9599 17.1391C16.9599 17.1351 16.9599 17.1312 16.9599 17.1273C16.9599 17.1233 16.9599 17.1194 16.9599 17.1155C16.9599 17.1116 16.9599 17.1077 16.9599 17.1039C16.9599 17.0999 16.9599 17.0961 16.9599 17.0922C16.9599 17.0884 16.9599 17.0846 16.9599 17.0807C16.9599 17.077 16.9599 17.0732 16.9599 17.0693C16.9599 17.0656 16.9599 17.0618 16.9599 17.0581C16.9599 17.0542 16.9599 17.0505 16.9599 17.0468C16.9599 17.0431 16.9599 17.0392 16.9599 17.0355C16.9599 17.0318 16.9599 17.0282 16.9599 17.0245C16.9599 17.0208 16.9599 17.0171 16.9599 17.0135C16.9599 17.0098 16.9599 17.0062 16.9599 17.0025C16.9599 16.9989 16.9599 16.9953 16.9599 16.9916C16.9599 16.988 16.9599 16.9845 16.9599 16.9809C16.9599 16.9773 16.9599 16.9737 16.9599 16.9703C16.9599 16.9667 16.9599 16.9631 16.9599 16.9596C16.9599 16.956 16.9599 16.9526 16.9599 16.949C16.9599 16.9455 16.9599 16.9421 16.9599 16.9385C16.9599 16.9351 16.9599 16.9316 16.9599 16.9281C16.9599 16.9247 16.9599 16.9214 16.9599 16.9179C16.9599 16.9144 16.9599 16.911 16.9599 16.9077C16.9599 16.9042 16.9599 16.9009 16.9599 16.8974C16.9599 16.8941 16.9599 16.8908 16.9599 16.8874C16.9599 16.884 16.9599 16.8807 16.9599 16.8773C16.9599 16.874 16.9599 16.8708 16.9599 16.8675C16.9599 16.8641 16.9599 16.8608 16.9599 16.8576C16.9599 16.8543 16.9599 16.8511 16.9599 16.8478C16.9599 16.8446 16.9599 16.8414 16.9599 16.8382C16.9599 16.8348 16.9599 16.8316 16.9599 16.8284C16.9599 16.8252 16.9599 16.822 16.9599 16.819C16.9599 16.8158 16.9599 16.8126 16.9599 16.8095C16.9599 16.8063 16.9599 16.8031 16.9599 16.8C16.9599 16.7969 16.9599 16.7937 16.9599 16.7907C16.9599 16.7876 16.9599 16.7845 16.9599 16.7815C16.9599 16.7784 16.9599 16.7753 16.9599 16.7722C16.9599 16.7692 16.9599 16.7661 16.9599 16.7632C16.9599 16.7601 16.9599 16.757 16.9599 16.7541C16.9599 16.751 16.9599 16.748 16.9599 16.7451C16.9599 16.742 16.9599 16.7391 16.9599 16.7361C16.9599 16.7332 16.9599 16.7303 16.9599 16.7273C16.9599 16.7244 16.9599 16.7214 16.9599 16.7186C16.9599 16.7157 16.9599 16.7127 16.9599 16.7099C16.9599 16.707 16.9599 16.7041 16.9599 16.7012C16.9599 16.6984 16.9599 16.6956 16.9599 16.6927C16.9599 16.6898 16.9599 16.687 16.9599 16.6842C16.9599 16.6814 16.9599 16.6785 16.9599 16.6759C16.9599 16.673 16.9599 16.6702 16.9599 16.6674C16.9599 16.6647 16.9599 16.6619 16.9599 16.6592C16.9599 16.6564 16.9599 16.6537 16.9599 16.651C16.9599 16.6482 16.9599 16.6455 16.9599 16.6428C16.9599 16.6401 16.9599 16.6375 16.9599 16.6348C16.9599 16.6321 16.9599 16.6294 16.9599 16.6268C16.9599 16.6241 16.9599 16.6215 16.9599 16.6189C16.9599 16.6162 16.9599 16.6136 16.9599 16.611C16.9599 16.6084 16.9599 16.6057 16.9599 16.6032C16.9599 16.6006 16.9599 16.598 16.9599 16.5955C16.9599 16.5929 16.9599 16.5904 16.9599 16.5878C16.9599 16.5852 16.9599 16.5827 16.9599 16.5802C16.9599 16.5777 16.9599 16.5751 16.9599 16.5727C16.9599 16.5701 16.9599 16.5677 16.9599 16.5651C16.9599 16.5627 16.9599 16.5603 16.9599 16.5578C16.9599 16.5553 16.9599 16.5528 16.9599 16.5504C16.9599 16.548 16.9599 16.5456 16.9599 16.5431C16.9599 16.5407 16.9599 16.5384 16.9599 16.536C16.9599 16.5335 16.9599 16.5312 16.9599 16.5288C16.9599 16.5265 16.9599 16.524 16.9599 16.5217C16.9599 16.5193 16.9599 16.517 16.9599 16.5147C16.9599 16.5124 16.9599 16.5101 16.9599 16.5078C16.9599 16.5055 16.9599 16.5032 16.9599 16.5009C16.9599 16.4986 16.9599 16.4963 16.9599 16.494C16.9599 16.4918 16.9599 16.4895 16.9599 16.4873C16.9599 16.485 16.9599 16.4828 16.9599 16.4805C16.9599 16.4784 16.9599 16.4762 16.9599 16.4739C16.9599 16.4717 16.9599 16.4695 16.9599 16.4673C16.9599 16.4652 16.9599 16.463 16.9599 16.4608C16.9599 16.4586 16.9599 16.4565 16.9599 16.4544C16.9599 16.4522 16.9599 16.4501 16.9599 16.448C16.9599 16.4458 16.9599 16.4437 16.9599 16.4416C16.9599 16.4396 16.9599 16.4374 16.9599 16.4353C16.9599 16.4333 16.9599 16.4311 16.9599 16.4291C16.9599 16.427 16.9599 16.425 16.9599 16.4229C16.9599 16.4209 16.9599 16.4188 16.9599 16.4169C16.9599 16.4149 16.9599 16.4128 16.9599 16.4108C16.9599 16.4088 16.9599 16.4068 16.9599 16.4049C16.9599 16.4028 16.9599 16.4009 16.9599 16.3989C16.9599 16.3969 16.9599 16.395 16.9599 16.3931C16.9599 16.3911 16.9599 16.3891 16.9599 16.3872C16.9599 16.3853 16.9599 16.3834 16.9599 16.3815C16.9599 16.3795 16.9599 16.3777 16.9599 16.3758C16.9599 16.3739 16.9599 16.372 16.9599 16.3702C16.9599 16.3683 16.9599 16.3665 16.9599 16.3646C16.9599 16.3628 16.9599 16.3608 16.9599 16.3591C16.9599 16.3573 16.9599 16.3553 16.9599 16.3536C16.9599 16.3518 16.9599 16.35 16.9599 16.3482C16.9599 16.3464 16.9599 16.3446 16.9599 16.3428C16.9599 16.341 16.9599 16.3392 16.9599 16.3375C16.9599 16.3358 16.9599 16.334 16.9599 16.3323C16.9599 16.3305 16.9599 16.3288 16.9599 16.3271C16.9599 16.3254 16.9599 16.3236 16.9599 16.3219C16.9599 16.3203 16.9599 16.3185 16.9599 16.3168C16.9599 16.3152 16.9599 16.3135 16.9599 16.3118C16.9599 16.3102 16.9599 16.3085 16.9599 16.3068C16.9599 16.3052 16.9599 16.3035 16.9599 16.302C16.9599 16.3003 16.9599 16.2986 16.9599 16.2971C16.9599 16.2954 16.9599 16.2939 16.9599 16.2922C16.9599 16.2907 16.9599 16.289 16.9599 16.2875C16.9599 16.2858 16.9599 16.2843 16.9599 16.2828C16.9599 16.2812 16.9599 16.2797 16.9599 16.2782C16.9599 16.2766 16.9599 16.2751 16.9599 16.2736C16.9599 16.272 16.9599 16.2705 16.9599 16.2689C16.9599 16.2674 16.9599 16.2659 16.9599 16.2645C16.9599 16.2629 16.9599 16.2614 16.9599 16.26C16.9599 16.2584 16.9599 16.257 16.9599 16.2556C16.9599 16.2541 16.9599 16.2527 16.9599 16.2512C16.9599 16.2497 16.9599 16.2483 16.9599 16.2469C16.9599 16.2455 16.9599 16.2441 16.9599 16.2427C16.9599 16.2413 16.9599 16.2399 16.9599 16.2385C16.9599 16.2371 16.9599 16.2357 16.9599 16.2343C16.9599 16.2328 16.9599 16.2316 16.9599 16.2302C16.9599 16.2288 16.9599 16.2275 16.9599 16.2261C16.9599 16.2248 16.9599 16.2234 16.9599 16.2221C16.9599 16.2208 16.9599 16.2194 16.9599 16.2181C16.9599 16.2168 16.9599 16.2156 16.9599 16.2142C16.9599 16.2129 16.9599 16.2116 16.9599 16.2103C16.9599 16.209 16.9599 16.2078 16.9599 16.2065C16.9599 16.2052 16.9599 16.204 16.9599 16.2028C16.9599 16.2015 16.9599 16.2002 16.9599 16.1991C16.9599 16.1978 16.9599 16.1965 16.9599 16.1953C16.9599 16.1941 16.9599 16.1929 16.9599 16.1916C16.9599 16.1905 16.9599 16.1893 16.9599 16.188C16.9599 16.1869 16.9599 16.1857 16.9599 16.1846C16.9599 16.1833 16.9599 16.1822 16.9599 16.181C16.9599 16.1799 16.9599 16.1787 16.9599 16.1775C16.9599 16.1764 16.9599 16.1752 16.9599 16.1742C16.9599 16.1731 16.9599 16.1719 16.9599 16.1708C16.9599 16.1697 16.9599 16.1686 16.9599 16.1674C16.9599 16.1664 16.9599 16.1653 16.9599 16.1642C16.9599 16.1631 16.9599 16.1621 16.9599 16.1609C16.9599 16.1599 16.9599 16.1589 16.9599 16.1577C16.9599 16.1567 16.9599 16.1557 16.9599 16.1546C16.9599 16.1536 16.9599 16.1525 16.9599 16.1514C16.9599 16.1504 16.9599 16.1494 16.9599 16.1484C16.9599 16.1473 16.9599 16.1464 16.9599 16.1454C16.9599 16.1444 16.9599 16.1434 16.9599 16.1424C16.9599 16.1415 16.9599 16.1404 16.9599 16.1394C16.9599 16.1385 16.9599 16.1375 16.9599 16.1366C16.9599 16.1356 16.9599 16.1347 16.9599 16.1336C16.9599 16.1328 16.9599 16.1319 16.9599 16.1308C16.9599 16.1299 16.9599 16.129 16.9599 16.128C16.9599 16.1271 16.9599 16.1262 16.9599 16.1253C16.9599 16.1244 16.9599 16.1235 16.9599 16.1226C16.9599 16.1217 16.9599 16.1208 16.9599 16.12C16.9599 16.1191 16.9599 16.1182 16.9599 16.1174C16.9599 16.1165 16.9599 16.1156 16.9599 16.1147C16.9599 16.1139 16.9599 16.113 16.9599 16.1121C16.9599 16.1114 16.9599 16.1105 16.9599 16.1097C16.9599 16.1088 16.9599 16.108 16.9599 16.1072C16.9599 16.1064 16.9599 16.1056 16.9599 16.1047C16.9599 16.104 16.9599 16.1032 16.9599 16.1024C16.9599 16.1016 16.9599 16.1008 16.9599 16.1C16.9599 16.0992 16.9599 16.0984 16.9599 16.0977C16.9599 16.0969 16.9599 16.0961 16.9599 16.0954C16.9599 16.0946 16.9599 16.0938 16.9599 16.0932C16.9599 16.0924 16.9599 16.0917 16.9599 16.0909C16.9599 16.0903 16.9599 16.0895 16.9599 16.0887C16.9599 16.0881 16.9599 16.0873 16.9599 16.0865C16.9599 16.0859 16.9599 16.0851 16.9599 16.0845C16.9599 16.0839 16.9599 16.0831 16.9599 16.0824C16.9599 16.0817 16.9599 16.081 16.9599 16.0804C16.9599 16.0796 16.9599 16.079 16.9599 16.0784C16.9599 16.0777 16.9599 16.0771 16.9599 16.0764C16.9599 16.0758 16.9599 16.075 16.9599 16.0744C16.9599 16.0737 16.9599 16.0731 16.9599 16.0726C16.9599 16.0719 16.9599 16.0713 16.9599 16.0707C16.9599 16.07 16.9599 16.0694 16.9599 16.0689C16.9599 16.0682 16.9599 16.0676 16.9599 16.067C16.9599 16.0664 16.9599 16.0658 16.9599 16.0652C16.9599 16.0647 16.9599 16.064 16.9599 16.0635C16.9599 16.0629 16.9599 16.0624 16.9599 16.0617C16.9599 16.0612 16.9599 16.0607 16.9599 16.06C16.9599 16.0595 16.9599 16.059 16.9599 16.0584C16.9599 16.0579 16.9599 16.0574 16.9599 16.0568C16.9599 16.0563 16.9599 16.0557 16.9599 16.0552C16.9599 16.0547 16.9599 16.0542 16.9599 16.0536C16.9599 16.0531 16.9599 16.0526 16.9599 16.0521C16.9599 16.0516 16.9599 16.0511 16.9599 16.0506C16.9599 16.0501 16.9599 16.0497 16.9599 16.0492C16.9599 16.0487 16.9599 16.0481 16.9599 16.0478C16.9599 16.0472 16.9599 16.0467 16.9599 16.0462C16.9599 16.0458 16.9599 16.0453 16.9599 16.0449C16.9599 16.0444 16.9599 16.044 16.9599 16.0435C16.9599 16.043 16.9599 16.0426 16.9599 16.0423C16.9599 16.0417 16.9599 16.0414 16.9599 16.0408C16.9599 16.0405 16.9599 16.0401 16.9599 16.0396C16.9599 16.0392 16.9599 16.04 16.9599 16.0396C16.9599 16.0391 16.9599 16.0375 16.9599 16.0371C16.9599 16.0368 16.9599 16.0375 16.9599 16.0371C16.9599 16.0368 16.9599 16.0352 16.9599 16.0348C16.9599 16.0344 16.9599 16.0352 16.9599 16.0348C16.9599 16.0344 16.9599 16.0329 16.9599 16.0325C16.9599 16.0321 16.9599 16.0329 16.9599 16.0325C16.9599 16.0321 16.9599 16.0307 16.9599 16.0304C16.9599 16.03 16.9599 16.0306 16.9599 16.0304C16.9599 16.03 16.9599 16.0286 16.9599 16.0283C16.9599 16.0279 16.9599 16.0287 16.9599 16.0283C16.9599 16.0279 16.9599 16.0266 16.9599 16.0263C16.9599 16.026 16.9599 16.0265 16.9599 16.0263C16.9599 16.026 16.9599 16.0247 16.9599 16.0245C16.9599 16.0241 16.9599 16.0247 16.9599 16.0245C16.9599 16.0241 16.9599 16.0229 16.9599 16.0227C16.9599 16.0224 16.9599 16.0229 16.9599 16.0227C16.9599 16.0224 16.9599 16.0213 16.9599 16.021C16.9599 16.0206 16.9599 16.0213 16.9599 16.021C16.9599 16.0208 16.9599 16.0196 16.9599 16.0193C16.9599 16.0191 16.9599 16.0196 16.9599 16.0193C16.9599 16.0191 16.9599 16.0181 16.9599 16.0178C16.9599 16.0176 16.9599 16.0181 16.9599 16.0178C16.9599 16.0176 16.9599 16.0167 16.9599 16.0164C16.9599 16.0161 16.9599 16.0167 16.9599 16.0164C16.9599 16.0163 16.9599 16.0152 16.9599 16.015C16.9599 16.0147 16.9599 16.0133 16.9599 16.0131C16.9599 16.0129 16.9599 16.0115 16.9599 16.0114C16.9599 16.0113 16.9599 16.01 16.9599 16.0099C16.9599 16.0097 16.9599 16.0086 16.9599 16.0083C16.9599 16.0082 16.9599 16.0073 16.9599 16.0071C16.9599 16.0069 16.9599 16.0058 16.9599 16.0056C16.9599 16.0055 16.9599 16.0058 16.9599 16.0056C16.9599 16.0055 16.9599 16.0045 16.9599 16.0044C16.9599 16.0042 16.9599 16.003 16.9599 16.0028C16.9599 16.0028 16.9599 16.0017 16.9599 16.0016C16.9599 16.0014 16.9599 16 16.9599 16H15.9999ZM16.9599 16V9.60001H15.0399V16H16.9599Z" fill="#9C5D31"/>
</svg>
