<svg width="30" height="30" viewBox="0 0 30 30" fill="none" xmlns="http://www.w3.org/2000/svg">
<path d="M3.75 14.125C3.75 7.91186 8.7868 2.87506 15 2.87506C21.2133 2.87506 26.25 7.91186 26.25 14.125M3.75 14.125H6.25C7.63071 14.125 8.75 15.2444 8.75 16.625V19.125C8.75 20.5057 7.63071 21.625 6.25 21.625M3.75 14.125V20.375C3.75 21.0654 4.30965 21.625 5 21.625H6.25M26.25 14.125H23.75C22.3693 14.125 21.25 15.2444 21.25 16.625V19.125C21.25 20.5057 22.3693 21.625 23.75 21.625H25C25.6904 21.625 26.25 21.0654 26.25 20.375V14.125ZM6.25 21.625V22.875C6.25 24.2557 7.36929 25.375 8.75 25.375H11.25M11.25 25.375C11.25 26.4106 12.0895 27.25 13.125 27.25H14.375C15.4105 27.25 16.25 26.4106 16.25 25.375C16.25 24.3395 15.4105 23.5 14.375 23.5H13.125C12.0895 23.5 11.25 24.3395 11.25 25.375Z" stroke="white" stroke-width="1.6" stroke-linecap="round"/>
</svg>
