<svg width="31" height="30" viewBox="0 0 31 30" fill="none" xmlns="http://www.w3.org/2000/svg">
<path d="M6.88477 12.2218V20.25C6.88477 22.3502 6.88477 23.4004 7.29349 24.2025C7.65302 24.9081 8.22669 25.4817 8.9323 25.8412C9.73447 26.25 10.7846 26.25 12.8848 26.25H18.3848C20.485 26.25 21.535 26.25 22.3373 25.8412C23.0429 25.4817 23.6165 24.9081 23.976 24.2025C24.3848 23.4004 24.3848 22.3502 24.3848 20.25V6.25001M26.8848 15L20.0933 7.45497C18.5486 5.73901 17.7764 4.88104 16.8668 4.56429C16.068 4.28609 15.1985 4.28615 14.3996 4.56447C13.4901 4.88135 12.718 5.73945 11.1737 7.45564L4.38477 15M18.1348 26.25V18.75H13.1348V26.25" stroke="white" stroke-width="1.6" stroke-linecap="round" stroke-linejoin="round"/>
</svg>
