<svg width="54" height="36" viewBox="0 0 54 36" fill="none" xmlns="http://www.w3.org/2000/svg">
<path d="M52.8523 19.0473H28.9558V35.1485H52.8523V19.0473Z" fill="white"/>
<path d="M40.6536 7.62222L29.8667 19H52.4445L40.6536 7.62222Z" fill="#EA5A47" stroke="#EA5A47" stroke-width="1.77778" stroke-miterlimit="10" stroke-linecap="round" stroke-linejoin="round"/>
<path d="M38.0444 10.1111L32.3555 15.4973V7.87663C32.3555 7.04881 33.0265 6.61778 33.8543 6.61778H36.5455C37.3733 6.61778 38.0444 7.04881 38.0444 7.87663V10.1111Z" fill="#EA5A47"/>
<path d="M39.5555 24.3333H34.2222V35H39.5555V24.3333Z" fill="#A57939"/>
<path d="M49.3333 24.3333H44V28.7778H49.3333V24.3333Z" fill="#92D3F5"/>
<path d="M32.4496 12.1905C32.4496 9.24623 29.3877 6.85494 25.6108 6.85494C25.2953 6.85752 24.9801 6.87716 24.6666 6.91378C23.067 3.84241 19.5941 1.70898 15.5556 1.70898C10.002 1.70898 5.50027 5.73441 5.50027 10.6996C5.50134 11.0277 5.52223 11.3556 5.56285 11.6812C3.08045 12.4813 1.33325 14.3869 1.33325 16.6121C1.33325 19.5564 4.39512 21.9477 8.17201 21.9477C9.60765 21.96 11.0214 21.5901 12.2731 20.8748C13.8888 22.1873 16.4743 23.0423 19.3979 23.0423C24.2961 23.0423 28.2669 20.6534 28.2669 17.7068C28.2661 17.512 28.2478 17.3177 28.2125 17.1262C30.6983 16.3248 32.4496 14.4181 32.4496 12.1905Z" fill="#B1CC33"/>
<path d="M36.8887 11L40.6534 7.44446L52.8887 18.1979V35H29.7776V23.9317" stroke="black" stroke-width="1.77778" stroke-miterlimit="10" stroke-linecap="round" stroke-linejoin="round"/>
<path d="M39.5555 24.3333H34.2222V35H39.5555V24.3333Z" stroke="black" stroke-width="1.77778" stroke-miterlimit="10" stroke-linecap="round" stroke-linejoin="round"/>
<path d="M49.3333 24.3333H44V28.7778H49.3333V24.3333Z" stroke="black" stroke-width="1.77778" stroke-miterlimit="10" stroke-linecap="round" stroke-linejoin="round"/>
<path d="M34.6665 7.44446H37.3332V10.1111" stroke="black" stroke-width="1.77778" stroke-miterlimit="10" stroke-linecap="round" stroke-linejoin="round"/>
<path d="M15.9999 35V28.6239L11.5554 24.3333" stroke="black" stroke-width="1.77778" stroke-linecap="round" stroke-linejoin="round"/>
<path d="M16.4807 28.5347L19.0089 25.9029" stroke="black" stroke-width="1.77778" stroke-linecap="round" stroke-linejoin="round"/>
<path d="M32.4496 12.1905C32.4496 9.24623 29.3877 6.85494 25.6108 6.85494C25.2953 6.85752 24.9801 6.87716 24.6666 6.91378C23.067 3.84241 19.5941 1.70898 15.5556 1.70898C10.002 1.70898 5.50027 5.73441 5.50027 10.6996C5.50134 11.0277 5.52223 11.3556 5.56285 11.6812C3.08045 12.4813 1.33325 14.3869 1.33325 16.6121C1.33325 19.5564 4.39512 21.9477 8.17201 21.9477C9.60765 21.96 11.0214 21.5901 12.2731 20.8748C13.8888 22.1873 16.4743 23.0423 19.3979 23.0423C24.2961 23.0423 28.2669 20.6534 28.2669 17.7068C28.2661 17.512 28.2478 17.3177 28.2125 17.1262C30.6983 16.3248 32.4496 14.4181 32.4496 12.1905Z" stroke="black" stroke-width="1.77778" stroke-miterlimit="10" stroke-linecap="round"/>
<path d="M52.4443 19H33.7776" stroke="black" stroke-width="1.77778" stroke-miterlimit="10" stroke-linecap="round" stroke-linejoin="round"/>
</svg>
