<svg width="31" height="31" viewBox="0 0 31 31" fill="none" xmlns="http://www.w3.org/2000/svg">
<path d="M20.6416 17.8721C20.2871 16.4457 18.7429 15.3721 16.8916 15.3721C15.0404 15.3721 13.4961 16.4457 13.1416 17.8721M16.8916 10.3721H16.9041M22.5166 26.6221H12.7666C9.6163 26.6221 8.04116 26.6221 6.8379 26.0089C5.77949 25.4697 4.91898 24.6092 4.37969 23.5508C3.7666 22.3476 3.7666 20.7723 3.7666 17.6221V7.87207M11.5166 22.8721H22.2666C23.6667 22.8721 24.3669 22.8721 24.9016 22.5996C25.372 22.3599 25.7545 21.9774 25.9941 21.5071C26.2666 20.9723 26.2666 20.2722 26.2666 18.8721V8.12207C26.2666 6.72195 26.2666 6.02187 25.9941 5.4871C25.7545 5.01668 25.372 4.63423 24.9016 4.39456C24.3669 4.12207 23.6667 4.12207 22.2666 4.12207H11.5166C10.1165 4.12207 9.4164 4.12207 8.88163 4.39456C8.41121 4.63423 8.02876 5.01668 7.78909 5.4871C7.5166 6.02187 7.5166 6.72193 7.5166 8.12207V18.8721C7.5166 20.2722 7.5166 20.9723 7.78909 21.5071C8.02876 21.9774 8.41121 22.3599 8.88163 22.5996C9.4164 22.8721 10.1165 22.8721 11.5166 22.8721ZM18.1416 10.3721C18.1416 11.0624 17.582 11.6221 16.8916 11.6221C16.2012 11.6221 15.6416 11.0624 15.6416 10.3721C15.6416 9.68172 16.2012 9.12207 16.8916 9.12207C17.582 9.12207 18.1416 9.68172 18.1416 10.3721Z" stroke="white" stroke-width="1.6" stroke-linecap="round" stroke-linejoin="round"/>
</svg>
