<svg width="30" height="30" viewBox="0 0 30 30" fill="none" xmlns="http://www.w3.org/2000/svg">
<path d="M10.5 17.25C10.5 17.25 12.1875 19.5 15 19.5C17.8125 19.5 19.5 17.25 19.5 17.25M18.375 11.625H18.3862M11.625 11.625H11.6363M26.25 15C26.25 21.2133 21.2133 26.25 15 26.25C8.7868 26.25 3.75 21.2133 3.75 15C3.75 8.7868 8.7868 3.75 15 3.75C21.2133 3.75 26.25 8.7868 26.25 15ZM18.9375 11.625C18.9375 11.9357 18.6856 12.1875 18.375 12.1875C18.0644 12.1875 17.8125 11.9357 17.8125 11.625C17.8125 11.3143 18.0644 11.0625 18.375 11.0625C18.6856 11.0625 18.9375 11.3143 18.9375 11.625ZM12.1875 11.625C12.1875 11.9357 11.9357 12.1875 11.625 12.1875C11.3143 12.1875 11.0625 11.9357 11.0625 11.625C11.0625 11.3143 11.3143 11.0625 11.625 11.0625C11.9357 11.0625 12.1875 11.3143 12.1875 11.625Z" stroke="white" stroke-width="1.6" stroke-linecap="round" stroke-linejoin="round"/>
</svg>
