<svg width="27" height="27" viewBox="0 0 27 27" fill="none" xmlns="http://www.w3.org/2000/svg">
<path d="M22.6667 2.66667H20V1.33333C20 0.979711 19.8595 0.640573 19.6095 0.390524C19.3594 0.140476 19.0203 0 18.6667 0C18.313 0 17.9739 0.140476 17.7239 0.390524C17.4738 0.640573 17.3333 0.979711 17.3333 1.33333V2.66667H9.33333V1.33333C9.33333 0.979711 9.19286 0.640573 8.94281 0.390524C8.69276 0.140476 8.35362 0 8 0C7.64638 0 7.30724 0.140476 7.05719 0.390524C6.80714 0.640573 6.66667 0.979711 6.66667 1.33333V2.66667H4C2.93913 2.66667 1.92172 3.08809 1.17157 3.83824C0.421427 4.58839 0 5.6058 0 6.66667V22.6667C0 23.7275 0.421427 24.7449 1.17157 25.4951C1.92172 26.2452 2.93913 26.6667 4 26.6667H22.6667C23.7275 26.6667 24.7449 26.2452 25.4951 25.4951C26.2452 24.7449 26.6667 23.7275 26.6667 22.6667V6.66667C26.6667 5.6058 26.2452 4.58839 25.4951 3.83824C24.7449 3.08809 23.7275 2.66667 22.6667 2.66667ZM24 22.6667C24 23.0203 23.8595 23.3594 23.6095 23.6095C23.3594 23.8595 23.0203 24 22.6667 24H4C3.64638 24 3.30724 23.8595 3.05719 23.6095C2.80714 23.3594 2.66667 23.0203 2.66667 22.6667V13.3333H24V22.6667ZM24 10.6667H2.66667V6.66667C2.66667 6.31305 2.80714 5.97391 3.05719 5.72386C3.30724 5.47381 3.64638 5.33333 4 5.33333H6.66667V6.66667C6.66667 7.02029 6.80714 7.35943 7.05719 7.60948C7.30724 7.85952 7.64638 8 8 8C8.35362 8 8.69276 7.85952 8.94281 7.60948C9.19286 7.35943 9.33333 7.02029 9.33333 6.66667V5.33333H17.3333V6.66667C17.3333 7.02029 17.4738 7.35943 17.7239 7.60948C17.9739 7.85952 18.313 8 18.6667 8C19.0203 8 19.3594 7.85952 19.6095 7.60948C19.8595 7.35943 20 7.02029 20 6.66667V5.33333H22.6667C23.0203 5.33333 23.3594 5.47381 23.6095 5.72386C23.8595 5.97391 24 6.31305 24 6.66667V10.6667Z" fill="#FF7D2A"/>
</svg>
