<svg width="22" height="22" viewBox="0 0 22 22" fill="none" xmlns="http://www.w3.org/2000/svg">
<path d="M13.4093 2.29646C10.3473 -0.765488 5.36577 -0.765488 2.30382 2.29646C-0.758175 5.35842 -0.758175 10.3405 2.30382 13.4024C5.36577 16.4644 10.3473 16.4644 13.4093 13.4024C16.4712 10.3405 16.4712 5.35842 13.4093 2.29646ZM12.3189 12.3121C9.85463 14.7759 5.85845 14.7759 3.39415 12.3116C0.929852 9.84732 0.929852 5.85114 3.39415 3.38731C5.85845 0.923012 9.85416 0.923012 12.3185 3.38731C14.7828 5.85161 14.7832 9.84732 12.3189 12.3121Z" fill="#BABABA"/>
<path d="M4.37908 4.83534C3.11765 6.45634 3.01263 8.68668 4.06451 10.4085C4.14516 10.5411 4.31811 10.5824 4.45028 10.5022C4.58198 10.4211 4.62374 10.2486 4.54309 10.1165C3.61213 8.59296 3.70494 6.61287 4.82106 5.18038C4.91671 5.05848 4.89466 4.88227 4.77229 4.78705C4.65047 4.69191 4.47421 4.71348 4.37908 4.83534Z" fill="#BABABA"/>
<path d="M21.4219 19.2381L15.7226 13.6865C15.4109 13.3827 14.9131 13.3865 14.6051 13.694L13.7013 14.5977C13.3939 14.9052 13.3905 15.4031 13.6948 15.7143L19.2459 21.4135C19.8623 22.1579 20.7731 22.202 21.4767 21.4979C22.1812 20.7948 22.1658 19.8545 21.4219 19.2381Z" fill="#BABABA"/>
</svg>
