<svg width="30" height="30" viewBox="0 0 30 30" fill="none" xmlns="http://www.w3.org/2000/svg">
<path d="M3.75 10.25C3.75 8.84986 3.75 8.1498 4.02249 7.61503C4.26216 7.14461 4.64461 6.76216 5.11503 6.52249C5.6498 6.25 6.34987 6.25 7.75 6.25H12.0931C12.7046 6.25 13.0104 6.25 13.2981 6.31908C13.5531 6.38031 13.797 6.48133 14.0208 6.6184C14.273 6.773 14.4892 6.98919 14.9216 7.42158L15.0784 7.57842C15.5108 8.01081 15.727 8.227 15.9792 8.3816C16.203 8.51867 16.4469 8.61969 16.7019 8.68093C16.9896 8.75 17.2954 8.75 17.9069 8.75H22.25C23.6501 8.75 24.3503 8.75 24.885 9.02249C25.3554 9.26216 25.7379 9.64461 25.9775 10.115C26.25 10.6498 26.25 11.3499 26.25 12.75V19.75C26.25 21.1501 26.25 21.8503 25.9775 22.385C25.7379 22.8554 25.3554 23.2379 24.885 23.4775C24.3503 23.75 23.6501 23.75 22.25 23.75H7.75C6.34986 23.75 5.6498 23.75 5.11503 23.4775C4.64461 23.2379 4.26216 22.8554 4.02249 22.385C3.75 21.8503 3.75 21.1501 3.75 19.75V10.25Z" stroke="white" stroke-width="1.6" stroke-linecap="round" stroke-linejoin="round"/>
</svg>
