<svg width="12" height="11" viewBox="0 0 12 11" fill="none" xmlns="http://www.w3.org/2000/svg">
<g clip-path="url(#clip0_12_3)">
<path d="M0.899223 3.69702C0.898853 3.65658 0.907342 3.61645 0.924202 3.57893C0.941063 3.54142 0.965964 3.50725 0.997478 3.4784C1.02909 3.44946 1.06673 3.42644 1.10822 3.41066C1.14972 3.39488 1.19425 3.38665 1.23925 3.38646C1.28425 3.38627 1.32883 3.39411 1.37041 3.40953C1.41199 3.42495 1.44975 3.44765 1.48152 3.47632L5.3464 6.93856C5.37817 6.96723 5.41593 6.98993 5.45751 7.00535C5.49909 7.02078 5.54367 7.02862 5.58867 7.02843C5.63367 7.02823 5.6782 7.02001 5.7197 7.00423C5.76119 6.98845 5.79883 6.96542 5.83044 6.93648L9.66937 3.44116C9.7334 3.38302 9.82037 3.35013 9.91115 3.34974C10.0019 3.34935 10.0891 3.38149 10.1534 3.43908C10.2178 3.49667 10.254 3.57501 10.2543 3.65684C10.2545 3.73868 10.2186 3.81732 10.1546 3.87547L6.31227 7.36773C6.121 7.5412 5.86135 7.6393 5.59035 7.64046C5.31935 7.64162 5.05917 7.54576 4.86695 7.37394L0.998677 3.91479C0.967005 3.88621 0.941917 3.85226 0.92485 3.81489C0.907785 3.77752 0.899075 3.73746 0.899223 3.69702Z" fill="white"/>
</g>
<defs>
<clipPath id="clip0_12_3">
<rect width="9.83409" height="10.9081" fill="white" transform="matrix(0.00274886 0.999996 -0.999991 0.00429446 11.0249 0.565002)"/>
</clipPath>
</defs>
</svg>
