<svg width="31" height="31" viewBox="0 0 31 31" fill="none" xmlns="http://www.w3.org/2000/svg">
<path d="M10.0166 6.62213C8.78116 6.6231 8.13359 6.6388 7.63163 6.89456C7.16121 7.13423 6.77876 7.51668 6.53909 7.9871C6.2666 8.52187 6.2666 9.22193 6.2666 10.6221V22.6221C6.2666 24.0222 6.2666 24.7223 6.53909 25.2571C6.77876 25.7274 7.16121 26.1099 7.63163 26.3496C8.1664 26.6221 8.86646 26.6221 10.2666 26.6221H19.7666C21.1667 26.6221 21.8669 26.6221 22.4016 26.3496C22.872 26.1099 23.2545 25.7274 23.4941 25.2571C23.7666 24.7223 23.7666 24.0222 23.7666 22.6221V10.6221C23.7666 9.22193 23.7666 8.52187 23.4941 7.9871C23.2545 7.51668 22.872 7.13423 22.4016 6.89456C21.8996 6.6388 21.2521 6.6231 20.0166 6.62213M10.0166 6.62213V9.12207H20.0166V6.62213M10.0166 6.62213V6.25596C10.0166 5.69001 10.2414 5.14725 10.6416 4.74707C11.0418 4.3469 11.5845 4.12207 12.1505 4.12207H17.8827C18.4486 4.12207 18.9915 4.3469 19.3916 4.74707C19.7917 5.14725 20.0166 5.69001 20.0166 6.25596V6.62213M18.7666 15.3721H15.0166M18.7666 20.3721H15.0166M11.2666 15.3721H11.2791M11.2666 20.3721H11.2791" stroke="white" stroke-width="1.6" stroke-linecap="round" stroke-linejoin="round"/>
</svg>
