<svg width="30" height="30" viewBox="0 0 30 30" fill="none" xmlns="http://www.w3.org/2000/svg">
<path d="M22.5 11.25H17.5M22.5 15H17.5M15 19.375C14.6455 17.9486 13.1012 16.875 11.25 16.875C9.39875 16.875 7.85455 17.9486 7.5 19.375M7.75 23.75H22.25C23.6501 23.75 24.3503 23.75 24.885 23.4775C25.3554 23.2379 25.7379 22.8554 25.9775 22.385C26.25 21.8503 26.25 21.1501 26.25 19.75V10.25C26.25 8.84987 26.25 8.1498 25.9775 7.61503C25.7379 7.14461 25.3554 6.76216 24.885 6.52249C24.3503 6.25 23.6501 6.25 22.25 6.25H7.75C6.34987 6.25 5.6498 6.25 5.11503 6.52249C4.64461 6.76216 4.26216 7.14461 4.02249 7.61503C3.75 8.1498 3.75 8.84986 3.75 10.25V19.75C3.75 21.1501 3.75 21.8503 4.02249 22.385C4.26216 22.8554 4.64461 23.2379 5.11503 23.4775C5.6498 23.75 6.34986 23.75 7.75 23.75ZM12.5 11.875C12.5 12.5654 11.9404 13.125 11.25 13.125C10.5596 13.125 10 12.5654 10 11.875C10 11.1847 10.5596 10.625 11.25 10.625C11.9404 10.625 12.5 11.1847 12.5 11.875Z" stroke="white" stroke-width="1.6" stroke-linecap="round" stroke-linejoin="round"/>
</svg>
