<svg width="20" height="20" viewBox="0 0 20 20" fill="none" xmlns="http://www.w3.org/2000/svg">
<path d="M4.52703 16.7844C4.47701 17.2882 4.84486 17.7371 5.34865 17.7872C5.85243 17.8372 6.30138 17.4694 6.35139 16.9656L4.52703 16.7844ZM13.6484 16.9656C13.6985 17.4694 14.1474 17.8372 14.6512 17.7872C15.155 17.7371 15.5228 17.2882 15.4728 16.7844L13.6484 16.9656ZM17.3333 10C17.3333 14.0501 14.05 17.3333 9.99992 17.3333V19.1667C15.0625 19.1667 19.1666 15.0626 19.1666 10H17.3333ZM9.99992 17.3333C5.94983 17.3333 2.66659 14.0501 2.66659 10H0.833252C0.833252 15.0626 4.93731 19.1667 9.99992 19.1667V17.3333ZM2.66659 10C2.66659 5.94991 5.94983 2.66667 9.99992 2.66667V0.833336C4.93731 0.833336 0.833252 4.93739 0.833252 10H2.66659ZM9.99992 2.66667C14.05 2.66667 17.3333 5.94991 17.3333 10H19.1666C19.1666 4.93739 15.0625 0.833336 9.99992 0.833336V2.66667ZM10.9166 8.16667C10.9166 8.67294 10.5062 9.08334 9.99992 9.08334V10.9167C11.5187 10.9167 12.7499 9.68549 12.7499 8.16667H10.9166ZM9.99992 9.08334C9.49364 9.08334 9.08325 8.67294 9.08325 8.16667H7.24992C7.24992 9.68549 8.48109 10.9167 9.99992 10.9167V9.08334ZM9.08325 8.16667C9.08325 7.66041 9.49364 7.25 9.99992 7.25V5.41667C8.48109 5.41667 7.24992 6.64789 7.24992 8.16667H9.08325ZM9.99992 7.25C10.5062 7.25 10.9166 7.66041 10.9166 8.16667H12.7499C12.7499 6.64789 11.5187 5.41667 9.99992 5.41667V7.25ZM6.35139 16.9656C6.53527 15.1136 8.09917 13.6667 9.99992 13.6667V11.8333C7.14743 11.8333 4.80308 14.0041 4.52703 16.7844L6.35139 16.9656ZM9.99992 13.6667C11.9006 13.6667 13.4646 15.1136 13.6484 16.9656L15.4728 16.7844C15.1968 14.0041 12.8524 11.8333 9.99992 11.8333V13.6667Z" fill="#9C5D31"/>
<path d="M4.52703 16.7844C4.47701 17.2882 4.84486 17.7371 5.34865 17.7872C5.85243 17.8372 6.30138 17.4694 6.35139 16.9656M4.52703 16.7844L6.35139 16.9656M4.52703 16.7844C4.80308 14.0041 7.14743 11.8333 9.99992 11.8333M6.35139 16.9656C6.53527 15.1136 8.09917 13.6667 9.99992 13.6667M13.6484 16.9656C13.6985 17.4694 14.1474 17.8372 14.6512 17.7872C15.155 17.7371 15.5228 17.2882 15.4728 16.7844M13.6484 16.9656L15.4728 16.7844M13.6484 16.9656C13.4646 15.1136 11.9006 13.6667 9.99992 13.6667M15.4728 16.7844C15.1968 14.0041 12.8524 11.8333 9.99992 11.8333M17.3333 10C17.3333 14.0501 14.05 17.3333 9.99992 17.3333M17.3333 10H19.1666M17.3333 10C17.3333 5.94991 14.05 2.66667 9.99992 2.66667M9.99992 17.3333V19.1667M9.99992 17.3333C5.94983 17.3333 2.66659 14.0501 2.66659 10M9.99992 19.1667C15.0625 19.1667 19.1666 15.0626 19.1666 10M9.99992 19.1667C4.93731 19.1667 0.833252 15.0626 0.833252 10M19.1666 10C19.1666 4.93739 15.0625 0.833336 9.99992 0.833336M2.66659 10H0.833252M2.66659 10C2.66659 5.94991 5.94983 2.66667 9.99992 2.66667M0.833252 10C0.833252 4.93739 4.93731 0.833336 9.99992 0.833336M9.99992 2.66667V0.833336M10.9166 8.16667C10.9166 8.67294 10.5062 9.08334 9.99992 9.08334M10.9166 8.16667H12.7499M10.9166 8.16667C10.9166 7.66041 10.5062 7.25 9.99992 7.25M9.99992 9.08334V10.9167M9.99992 9.08334C9.49364 9.08334 9.08325 8.67294 9.08325 8.16667M9.99992 10.9167C11.5187 10.9167 12.7499 9.68549 12.7499 8.16667M9.99992 10.9167C8.48109 10.9167 7.24992 9.68549 7.24992 8.16667M12.7499 8.16667C12.7499 6.64789 11.5187 5.41667 9.99992 5.41667M9.08325 8.16667H7.24992M9.08325 8.16667C9.08325 7.66041 9.49364 7.25 9.99992 7.25M7.24992 8.16667C7.24992 6.64789 8.48109 5.41667 9.99992 5.41667M9.99992 7.25V5.41667M9.99992 13.6667V11.8333" stroke="#9C5D31" stroke-width="0.00064"/>
</svg>
